<svg width="275" height="70" viewBox="0 0 275 70" fill="none" xmlns="http://www.w3.org/2000/svg">
<g clip-path="url(#clip0_25_3965)">
<path d="M94.5635 45.1394H105.806V51.2485H88.1575V18.7515H94.5635V45.1394Z" fill="#DD0031"/>
<path d="M109.157 21.5939C109.157 19.6 110.812 17.8606 112.806 17.8606C114.842 17.8606 116.539 19.5576 116.539 21.5939C116.539 23.5879 114.885 25.2424 112.806 25.2424C110.854 25.2424 109.157 23.5879 109.157 21.5939ZM109.879 51.2485V28.0424H115.861V51.2485H109.879Z" fill="#DD0031"/>
<path d="M140.848 29.9515C142.503 31.6485 143.351 33.9818 143.351 36.9939V51.2485H137.37V37.7576C137.37 34.6606 135.545 32.9636 132.788 32.9636C129.691 32.9636 127.697 34.8727 127.697 38.7333V51.2485H121.715V28.0424H127.697V30.6303C129.139 28.4667 131.473 27.3636 134.612 27.3636C137.115 27.4061 139.236 28.2121 140.848 29.9515Z" fill="#DD0031"/>
<path d="M153.449 41.9152C154.255 45.0121 156.418 46.4546 159.982 46.4546C162.273 46.4546 164.012 45.6485 165.2 44.1212L170.036 46.9212C167.745 50.2303 164.394 51.8849 159.939 51.8849C156.079 51.8849 153.024 50.7394 150.691 48.4061C148.358 46.0727 147.212 43.1455 147.212 39.6243C147.212 36.1455 148.358 33.2182 150.649 30.8849C152.939 28.5091 155.909 27.3636 159.473 27.3636C162.867 27.3636 165.709 28.5091 167.873 30.8849C170.121 33.2606 171.224 36.1455 171.224 39.6243C171.224 40.4303 171.139 41.194 171.012 41.9152H153.449ZM165.2 37.6727C164.521 34.3212 162.188 32.794 159.43 32.794C156.249 32.794 154.042 34.4909 153.364 37.6727H165.2Z" fill="#DD0031"/>
<path d="M193.2 18.7515H199.182V51.2485H193.2V48.4909C191.418 50.7818 188.915 51.8849 185.691 51.8849C182.594 51.8849 179.879 50.7394 177.673 48.3636C175.509 45.9879 174.364 43.0606 174.364 39.6243C174.364 36.1879 175.467 33.303 177.673 30.9273C179.921 28.5515 182.594 27.3636 185.691 27.3636C188.957 27.3636 191.46 28.4667 193.2 30.7576V18.7515ZM186.794 46.2C188.66 46.2 190.188 45.6061 191.376 44.3758C192.564 43.103 193.2 41.5333 193.2 39.6243C193.2 37.7152 192.606 36.1455 191.376 34.9576C190.188 33.6849 188.618 33.0909 186.794 33.0909C184.927 33.0909 183.4 33.6849 182.17 34.9576C180.982 36.1455 180.345 37.7576 180.345 39.6243C180.345 41.5333 180.939 43.103 182.17 44.3758C183.4 45.6061 184.97 46.2 186.794 46.2Z" fill="#DD0031"/>
<path d="M221.879 28.0424H227.86V51.2485H221.879V48.4909C220.054 50.7818 217.551 51.8849 214.327 51.8849C211.23 51.8849 208.557 50.7394 206.351 48.3636C204.188 45.9879 203.042 43.0606 203.042 39.6243C203.042 36.1879 204.145 33.303 206.351 30.9273C208.557 28.5515 211.23 27.3636 214.327 27.3636C217.594 27.3636 220.097 28.4667 221.879 30.7576V28.0424ZM215.43 46.2C217.297 46.2 218.824 45.6061 220.012 44.3758C221.285 43.103 221.879 41.5333 221.879 39.6243C221.879 37.7152 221.285 36.1455 220.012 34.9576C218.824 33.6849 217.254 33.0909 215.43 33.0909C213.563 33.0909 212.036 33.6849 210.848 34.9576C209.66 36.1455 209.024 37.7576 209.024 39.6243C209.024 41.5333 209.618 43.103 210.848 44.3758C212.079 45.6061 213.606 46.2 215.43 46.2Z" fill="#DD0031"/>
<path d="M244.66 33.8121H239.4V43.4848C239.4 45.9879 241.224 46.0303 244.66 45.8606V51.2909C236.43 52.2242 233.418 49.8485 233.418 43.4848V23.3758L239.4 21.5515V28.0424H244.66V33.8121Z" fill="#DD0031"/>
<path d="M266.339 28.0424H272.321V51.2485H266.339V48.4909C264.515 50.7818 262.012 51.8849 258.788 51.8849C255.691 51.8849 253.018 50.7394 250.812 48.3636C248.648 45.9879 247.503 43.0606 247.503 39.6243C247.503 36.1879 248.606 33.303 250.812 30.9273C253.018 28.5515 255.691 27.3636 258.788 27.3636C262.054 27.3636 264.557 28.4667 266.339 30.7576V28.0424ZM259.891 46.2C261.757 46.2 263.285 45.6061 264.473 44.3758C265.745 43.103 266.339 41.5333 266.339 39.6243C266.339 37.7152 265.745 36.1455 264.473 34.9576C263.285 33.6849 261.715 33.0909 259.891 33.0909C258.024 33.0909 256.497 33.6849 255.309 34.9576C254.121 36.1455 253.485 37.7576 253.485 39.6243C253.485 41.5333 254.079 43.103 255.309 44.3758C256.497 45.6061 258.024 46.2 259.891 46.2Z" fill="#DD0031"/>
<path d="M60.7091 4.28483L57.9515 4.79392C61.3454 8.35755 65.503 14.8485 65.503 22.9939C65.503 30.6303 62.703 37.5879 57.7394 43.4424C52.1394 50.0182 44.4606 53.9212 34.3212 55.8303C27.8727 57.0606 18.1576 58.8848 14.5091 59.5636C13.0242 59.8606 11.5818 60.0727 10.903 59.5212C10.5212 59.2242 10.3515 58.6727 10.3515 57.7818V26.6848C10.3515 21.8485 11.4121 18.6666 13.8727 16.3333C18.1151 12.2182 35.2969 6.70301 43.0182 11.9212C45.903 13.8727 47.6 17.0969 47.9818 21.4242C48.406 25.9636 47.2182 30.3333 44.4182 33.8121C41.4485 37.503 37.4606 39.5818 33.1333 40.3879C29.5697 41.0666 25.3272 41.8727 25.3272 41.8727V18.3697C25.3272 18.3697 24.8606 18.4969 24.606 18.5818C22.0606 19.4303 20.2363 20.7454 19.006 22.5697C17.7757 24.3939 17.1818 26.6424 17.1818 29.5273V47.7273C17.1818 48.9576 17.4788 49.806 18.1151 50.3151C18.7515 50.8242 19.7272 50.9515 21 50.6969C21.7212 50.5697 30.3333 48.9576 34.0242 48.2363C41.1091 46.9212 47.3454 43.1454 51.206 37.9273C55.2363 32.4969 56.806 25.6242 55.703 19.1333C54.7273 13.2363 51.9697 8.82422 47.5576 5.93937C44.5454 3.98786 40.8545 2.8424 36.5272 2.58786C32.3697 2.29089 27.7454 2.79998 22.7818 4.11513C17.0121 5.6424 12.1757 7.97574 8.73937 10.903C4.53937 14.5091 2.37573 19.006 2.37573 24.2242V59.3091C2.37573 64.4848 5.04846 67.4545 9.71513 67.4545C10.5636 67.4545 11.4969 67.3697 12.4727 67.1576C16.8 66.3515 31.6485 63.5515 34.8727 62.9151C49.806 60.1151 56.2545 54.6848 61.8121 47.9818C67.2848 41.3636 70.4242 33.2182 70.4242 25.7091C70.4666 16.206 66.5212 9.03634 60.7091 4.28483Z" fill="#DD0031"/>
</g>
<defs>
<clipPath id="clip0_25_3965">
<rect width="274.485" height="70" fill="white"/>
</clipPath>
</defs>
</svg>
