<svg width="127" height="50" viewBox="0 0 127 50" fill="none" xmlns="http://www.w3.org/2000/svg">
<path d="M7.47299 40.3026H16.8144V34.8392H7.47299V31.1969H17.7486L14.2269 25.3601L0 25.2781L0.0607276 49.8637H20.0746L20.0839 44.4002H7.47299V40.3026Z" fill="#4E4E4E"/>
<path d="M33.3763 25.2781L29.1333 33.3595L24.9041 25.2781H16.6212L25.2134 40.0613V49.8637H32.6007V40.075L41.5531 25.2781H33.3763Z" fill="#4E4E4E"/>
<path d="M48.8249 0L0 17.66L48.8249 9.11428V0Z" fill="#FFE600"/>
<path d="M60.9068 45.1161C60.9068 45.8167 60.7934 46.4555 60.5667 47.0325C60.3401 47.6094 59.9898 48.1074 59.5158 48.5264C59.0419 48.9386 58.4409 49.258 57.7128 49.4846C56.9847 49.7113 56.1158 49.8246 55.1061 49.8246C54.4879 49.8246 53.8937 49.7594 53.3236 49.6289C52.7535 49.5052 52.2212 49.3301 51.7266 49.1034C51.2321 48.8699 50.7822 48.5882 50.3769 48.2585C49.9785 47.922 49.6419 47.5476 49.3672 47.1355L51.5 45.2397C52.0151 45.8442 52.5955 46.2769 53.2412 46.5379C53.8869 46.7989 54.5634 46.9294 55.2709 46.9294C55.7723 46.9294 56.1776 46.8951 56.4867 46.8264C56.7958 46.7509 57.0534 46.6513 57.2594 46.5276C57.4724 46.3971 57.6235 46.246 57.7128 46.0743C57.8021 45.9026 57.8467 45.6519 57.8467 45.3222C57.8467 45.0886 57.8055 44.8825 57.7231 44.704C57.6406 44.5185 57.4792 44.3502 57.2388 44.1991C57.0053 44.048 56.6722 43.9038 56.2394 43.7664C55.8136 43.629 55.2503 43.4813 54.5497 43.3233C53.8697 43.1654 53.2446 42.9833 52.6745 42.7773C52.1113 42.5712 51.627 42.3033 51.2218 41.9736C50.8165 41.6439 50.5005 41.2352 50.2739 40.7476C50.0472 40.253 49.9339 39.6417 49.9339 38.9136C49.9339 38.2473 50.0712 37.6463 50.346 37.1106C50.6207 36.5748 50.9951 36.1215 51.469 35.7505C51.9499 35.3728 52.5097 35.0843 53.1485 34.8851C53.7941 34.6859 54.481 34.5863 55.2091 34.5863C55.7723 34.5863 56.3047 34.6378 56.8061 34.7408C57.3144 34.837 57.8089 34.9984 58.2897 35.2251C58.7774 35.4518 59.1896 35.6922 59.5261 35.9463C59.8627 36.2004 60.2164 36.5198 60.5874 36.9045L58.4546 38.9754C58.173 38.6869 57.9257 38.4637 57.7128 38.3057C57.4998 38.1477 57.256 38.0035 56.9812 37.873C56.7065 37.7356 56.418 37.6326 56.1158 37.5639C55.8135 37.4883 55.477 37.4506 55.1061 37.4506C54.7077 37.4506 54.3745 37.4918 54.1067 37.5742C53.8388 37.6498 53.6224 37.7493 53.4575 37.873C53.2927 37.9966 53.1725 38.1374 53.0969 38.2954C53.0283 38.4534 52.9939 38.6148 52.9939 38.7797C52.9939 39.0132 53.0386 39.2124 53.1279 39.3773C53.2171 39.5421 53.3751 39.6898 53.6018 39.8203C53.8285 39.9439 54.1307 40.0641 54.5085 40.1809C54.8931 40.2908 55.3808 40.4144 55.9715 40.5518C56.8095 40.751 57.5067 40.9605 58.0631 41.1803C58.6194 41.3932 59.1106 41.668 59.5364 42.0045C59.9623 42.3411 60.2954 42.767 60.5358 43.2821C60.7831 43.7973 60.9068 44.4086 60.9068 45.1161Z" fill="#4E4E4E"/>
<path d="M70.0815 49.1446C69.8411 49.337 69.5183 49.4984 69.113 49.6289C68.7077 49.7594 68.2784 49.8246 67.8251 49.8246C67.3786 49.8246 66.9734 49.7422 66.6093 49.5774C66.2453 49.4125 65.9328 49.1824 65.6717 48.887C65.4176 48.5848 65.2184 48.2311 65.0742 47.8258C64.9368 47.4206 64.8681 46.9741 64.8681 46.4864V41.2524H63.0135V38.5118H64.8681V35.6578L67.7839 34.2051V38.5118H70.4421V41.2524H67.7839V45.7034C67.7839 45.9712 67.8079 46.1911 67.856 46.3628C67.9041 46.5345 67.9728 46.6719 68.0621 46.7749C68.1514 46.8711 68.2613 46.9398 68.3918 46.981C68.5292 47.0153 68.6837 47.0325 68.8554 47.0325C69.1164 47.0325 69.3706 46.9672 69.6179 46.8367C69.872 46.7062 70.1674 46.4899 70.5039 46.1876L70.0815 49.1446Z" fill="#4E4E4E"/>
<path d="M91.5039 49.7632V49.0626C91.3596 49.1931 91.212 49.3099 91.0608 49.4129C90.9097 49.5091 90.738 49.6087 90.5457 49.7117C90.3534 49.8079 90.1439 49.88 89.9172 49.9281C89.6905 49.9761 89.4398 50.0002 89.1651 50.0002C88.5743 50.0002 88.018 49.8868 87.4959 49.6602C86.9739 49.4266 86.5171 49.0695 86.1256 48.5886C85.7341 48.1078 85.425 47.4965 85.1983 46.7547C84.9716 46.006 84.8583 44.4876 84.8583 43.4573C84.8583 42.633 84.9545 42.5064 85.1468 41.8195C85.3391 41.1257 85.6173 40.5316 85.9814 40.037C86.3454 39.5356 86.7953 39.1475 87.3311 38.8728C87.8668 38.5912 88.4782 38.4504 89.1651 38.4504C89.4192 38.4504 89.6562 38.471 89.876 38.5122C90.0958 38.5534 90.3122 38.6221 90.5251 38.7182C90.738 38.8075 90.92 38.9003 91.0711 38.9964C91.2291 39.0926 91.3734 39.199 91.5039 39.3158V35.8334L94.4197 34.3806V49.7632H91.5039ZM91.5039 42.1492C91.394 41.9981 91.2772 41.8676 91.1536 41.7577C91.0299 41.6478 90.8857 41.5516 90.7208 41.4692C90.5628 41.3799 90.3808 41.3146 90.1748 41.2734C89.9756 41.2253 89.766 41.2013 89.5462 41.2013C88.983 41.2013 88.5537 41.4383 88.2584 41.9122C87.963 42.3861 87.8153 43.0902 87.8153 44.0244C87.8153 44.5945 87.86 45.0821 87.9493 45.4874C88.0386 45.8927 88.1656 46.2258 88.3305 46.4868C88.4953 46.7478 88.6945 46.9401 88.9281 47.0638C89.1616 47.1874 89.4226 47.2492 89.7111 47.2492C89.9378 47.2492 90.137 47.2286 90.3087 47.1874C90.4873 47.1393 90.6453 47.0741 90.7827 46.9917C90.9269 46.9092 91.0574 46.8131 91.1742 46.7032C91.2909 46.5864 91.4009 46.4593 91.5039 46.322V42.1492Z" fill="#4E4E4E"/>
<path d="M100.714 36.6317C100.804 36.4256 100.848 36.2092 100.848 35.9826C100.848 35.7559 100.804 35.543 100.714 35.3438C100.625 35.1377 100.505 34.9591 100.354 34.808C100.203 34.6569 100.024 34.5367 99.818 34.4474C99.6188 34.3581 99.4059 34.3135 99.1792 34.3135C98.9525 34.3135 98.7361 34.3581 98.5301 34.4474C98.3309 34.5367 98.1557 34.6569 98.0046 34.808C97.8535 34.9591 97.7333 35.1377 97.644 35.3438C97.5547 35.543 97.5101 35.7559 97.5101 35.9826C97.5101 36.2092 97.5547 36.4256 97.644 36.6317C97.7333 36.8309 97.8535 37.006 98.0046 37.1571C98.1557 37.3082 98.3309 37.4284 98.5301 37.5177C98.7361 37.607 98.9525 37.6517 99.1792 37.6517C99.4059 37.6517 99.6188 37.607 99.818 37.5177C100.024 37.4284 100.203 37.3082 100.354 37.1571C100.505 37.006 100.625 36.8309 100.714 36.6317Z" fill="#4E4E4E"/>
<path d="M97.7264 38.5583V49.6342H100.642V38.5583H97.7264Z" fill="#4E4E4E"/>
<path d="M113.619 44.0549C113.619 44.9066 113.492 45.6862 113.238 46.3937C112.991 47.1012 112.64 47.709 112.187 48.2173C111.741 48.7256 111.208 49.1206 110.59 49.4022C109.979 49.6838 109.312 49.8246 108.591 49.8246C107.87 49.8246 107.204 49.6838 106.592 49.4022C105.981 49.1206 105.452 48.7256 105.006 48.2173C104.566 47.709 104.219 47.1012 103.965 46.3937C103.718 45.6862 103.594 44.9066 103.594 44.0549C103.594 43.21 103.718 42.4338 103.965 41.7264C104.219 41.012 104.566 40.4007 105.006 39.8924C105.452 39.3841 105.981 38.9892 106.592 38.7075C107.204 38.4191 107.87 38.2748 108.591 38.2748C109.312 38.2748 109.979 38.4191 110.59 38.7075C111.208 38.9892 111.741 39.3841 112.187 39.8924C112.64 40.4007 112.991 41.012 113.238 41.7264C113.492 42.4338 113.619 43.21 113.619 44.0549ZM110.662 44.0549C110.662 43.6359 110.618 43.2478 110.528 42.8906C110.446 42.5266 110.319 42.2106 110.147 41.9427C109.975 41.6749 109.759 41.4654 109.498 41.3142C109.244 41.1631 108.942 41.0876 108.591 41.0876C108.241 41.0876 107.939 41.1631 107.685 41.3142C107.43 41.4654 107.217 41.6749 107.046 41.9427C106.881 42.2038 106.757 42.5163 106.675 42.8803C106.592 43.2375 106.551 43.629 106.551 44.0549C106.551 44.4807 106.592 44.8757 106.675 45.2397C106.757 45.6038 106.881 45.9163 107.046 46.1773C107.217 46.4383 107.43 46.6444 107.685 46.7955C107.939 46.9398 108.241 47.0119 108.591 47.0119C108.942 47.0119 109.244 46.9329 109.498 46.7749C109.759 46.6101 109.975 46.3903 110.147 46.1155C110.319 45.8408 110.446 45.5248 110.528 45.1676C110.618 44.8104 110.662 44.4395 110.662 44.0549Z" fill="#4E4E4E"/>
<path d="M79.3012 49.6857V48.9439C79.047 49.2118 78.6967 49.4419 78.2502 49.6342C77.8038 49.8265 77.2886 49.9227 76.7048 49.9227C75.3722 49.9227 74.3556 49.4934 73.655 48.6348C72.9613 47.7762 72.6144 46.5158 72.6144 44.8536V38.6099H75.5302V44.596C75.5302 45.4889 75.671 46.1415 75.9526 46.5536C76.2342 46.9657 76.7185 47.1718 77.4054 47.1718C78.0991 47.1718 78.5868 46.9623 78.8684 46.5433C79.1569 46.1174 79.3012 45.4924 79.3012 44.6681V38.6099H82.217V49.6857H79.3012Z" fill="#4E4E4E"/>
<path d="M122.313 43.2744H126.469V45.542H122.313V49.7002H120.046V45.542H115.887V43.2744H120.046V39.1172H122.313V43.2744Z" fill="url(#paint0_linear_64_779)"/>
<defs>
<linearGradient id="paint0_linear_64_779" x1="119.477" y1="46.1095" x2="126.469" y2="39.1178" gradientUnits="userSpaceOnUse">
<stop stop-color="#FFE600"/>
<stop offset="0.305908" stop-color="#FC35FF"/>
<stop offset="0.575393" stop-color="#68C8FF"/>
</linearGradient>
</defs>
</svg>
