<svg width="189" height="104" viewBox="0 0 189 104" fill="none" xmlns="http://www.w3.org/2000/svg">
<path d="M11.1573 63.1574H25.1042V54.5957H11.1573V48.8879H26.4989L21.2409 39.7412L0 39.6128L0.0906673 78.1403H29.9717L29.9856 69.5786H11.1573V63.1574Z" fill="white"/>
<path d="M49.8314 39.6128L43.4965 52.2769L37.1822 39.6128H24.8157L37.6441 62.7792V78.1403H48.6733V62.8006L62.0394 39.6128H49.8314Z" fill="white"/>
<path d="M72.8963 0L0 27.6747L72.8963 14.2828V0Z" fill="#FFE600"/>
<path d="M7.2252 98.385C7.2252 98.8454 7.15424 99.2652 7.01231 99.6444C6.87039 100.024 6.65105 100.351 6.3543 100.626C6.05755 100.897 5.68124 101.107 5.22537 101.256C4.76949 101.405 4.22545 101.479 3.59325 101.479C3.20618 101.479 2.83417 101.436 2.47721 101.351C2.12025 101.269 1.78695 101.154 1.47729 101.005C1.16764 100.852 0.885947 100.667 0.632205 100.45C0.382763 100.229 0.172029 99.9829 0 99.7121L1.33537 98.4663C1.65792 98.8635 2.02134 99.1479 2.4256 99.3194C2.82987 99.4909 3.25349 99.5767 3.69646 99.5767C4.01041 99.5767 4.26416 99.5541 4.45769 99.509C4.65122 99.4593 4.8125 99.3939 4.94152 99.3126C5.07484 99.2268 5.16946 99.1275 5.22537 99.0147C5.28127 98.9018 5.30923 98.7371 5.30923 98.5204C5.30923 98.367 5.28343 98.2315 5.23182 98.1142C5.18021 97.9923 5.07914 97.8817 4.92862 97.7824C4.78239 97.6831 4.57381 97.5883 4.30286 97.498C4.03622 97.4078 3.68356 97.3107 3.24489 97.2069C2.81912 97.1031 2.42775 96.9835 2.07079 96.848C1.71813 96.7126 1.41493 96.5366 1.16119 96.3199C0.90745 96.1033 0.709618 95.8347 0.567694 95.5142C0.42577 95.1892 0.354809 94.7874 0.354809 94.309C0.354809 93.8711 0.440823 93.4762 0.612852 93.1241C0.78488 92.772 1.01927 92.4741 1.31602 92.2303C1.61707 91.9821 1.96758 91.7925 2.36754 91.6616C2.77181 91.5307 3.20188 91.4652 3.65776 91.4652C4.01042 91.4652 4.34372 91.4991 4.65767 91.5668C4.97592 91.63 5.28558 91.7361 5.58663 91.885C5.89198 92.034 6.15002 92.192 6.36075 92.359C6.57149 92.526 6.79298 92.7359 7.02521 92.9887L5.68984 94.3496C5.51351 94.16 5.35869 94.0133 5.22537 93.9095C5.09204 93.8057 4.93937 93.7109 4.76734 93.6251C4.59531 93.5348 4.41468 93.4671 4.22545 93.422C4.03622 93.3723 3.82548 93.3475 3.59325 93.3475C3.3438 93.3475 3.13522 93.3746 2.96749 93.4288C2.79976 93.4784 2.66429 93.5439 2.56107 93.6251C2.45786 93.7064 2.38259 93.7989 2.33529 93.9027C2.29228 94.0065 2.27078 94.1126 2.27078 94.221C2.27078 94.3744 2.29873 94.5053 2.35464 94.6137C2.41055 94.722 2.50947 94.8191 2.65139 94.9048C2.79331 94.9861 2.98254 95.0651 3.21908 95.1418C3.45992 95.214 3.76527 95.2953 4.13514 95.3855C4.65982 95.5164 5.09634 95.6541 5.4447 95.7986C5.79306 95.9385 6.10056 96.119 6.36721 96.3402C6.63385 96.5614 6.84243 96.8413 6.99296 97.1798C7.14778 97.5183 7.2252 97.9201 7.2252 98.385Z" fill="white"/>
<path d="M12.4028 101.324V97.3829C12.4028 96.8052 12.3147 96.3808 12.1383 96.11C11.9663 95.8347 11.6631 95.697 11.2287 95.697C11.0395 95.697 10.8718 95.7241 10.7255 95.7782C10.5793 95.8324 10.4546 95.9227 10.3514 96.0491C10.2525 96.1755 10.1751 96.3447 10.1191 96.5569C10.0675 96.7645 10.0417 97.0263 10.0417 97.3423V101.324H8.21608V92.1694L10.0417 91.2147V94.5256C10.1148 94.4444 10.2095 94.3654 10.3256 94.2887C10.4417 94.2074 10.5686 94.1374 10.7062 94.0788C10.8438 94.0156 10.99 93.9682 11.1449 93.9366C11.304 93.905 11.4782 93.8892 11.6674 93.8892C12.1104 93.8892 12.491 93.9682 12.8092 94.1262C13.1318 94.2796 13.3984 94.5008 13.6092 94.7897C13.8199 95.0741 13.9747 95.4217 14.0737 95.8324C14.1769 96.2432 14.2285 96.7059 14.2285 97.2204V101.324H12.4028Z" fill="white"/>
<path d="M19.09 101.324V100.836C19.0083 100.926 18.9158 101.01 18.8126 101.087C18.7094 101.159 18.5847 101.229 18.4384 101.296C18.2922 101.36 18.1438 101.405 17.9933 101.432C17.8428 101.463 17.688 101.479 17.5288 101.479C17.2063 101.479 16.8902 101.427 16.5805 101.324C16.2709 101.215 15.9935 101.055 15.7483 100.843C15.5075 100.631 15.3118 100.362 15.1613 100.037C15.0151 99.7121 14.942 99.3284 14.942 98.886C14.942 98.4843 15.0151 98.1322 15.1613 97.8298C15.3075 97.5274 15.5075 97.2768 15.7613 97.0782C16.015 96.8751 16.3117 96.7239 16.6515 96.6246C16.9956 96.5208 17.3633 96.4689 17.7546 96.4689C18.0772 96.4689 18.3438 96.4982 18.5546 96.5569C18.7653 96.6156 18.9438 96.6833 19.09 96.76V96.4012C19.09 96.1303 19.004 95.9092 18.832 95.7376C18.6599 95.5616 18.4148 95.4736 18.0965 95.4736C17.6923 95.4736 17.3633 95.5052 17.1095 95.5684C16.8558 95.627 16.5526 95.7557 16.1999 95.9543L15.4968 94.6272C15.9354 94.3564 16.3504 94.1668 16.7418 94.0585C17.1375 93.9456 17.5891 93.8892 18.0965 93.8892C18.518 93.8892 18.9008 93.9456 19.2448 94.0585C19.5932 94.1713 19.8899 94.3361 20.1351 94.5527C20.3845 94.7694 20.5759 95.0357 20.7092 95.3517C20.8468 95.6677 20.9157 96.031 20.9157 96.4418V101.324H19.09ZM19.09 98.2699C19.0126 98.2203 18.933 98.1774 18.8513 98.1413C18.7696 98.1006 18.6793 98.069 18.5804 98.0465C18.4815 98.0194 18.3696 97.9991 18.2449 97.9855C18.1245 97.972 17.9826 97.9652 17.8191 97.9652C17.4751 97.9652 17.2127 98.0465 17.0321 98.209C16.8558 98.367 16.7676 98.5926 16.7676 98.886C16.7676 99.0124 16.7848 99.1343 16.8192 99.2517C16.8579 99.369 16.9181 99.4729 16.9999 99.5631C17.0859 99.6489 17.1955 99.7189 17.3289 99.773C17.4622 99.8272 17.6256 99.8543 17.8191 99.8543C17.9697 99.8543 18.1094 99.8362 18.2385 99.8001C18.3718 99.764 18.4922 99.7166 18.5997 99.6579C18.7115 99.5947 18.8083 99.5225 18.89 99.4413C18.9717 99.36 19.0384 99.2765 19.09 99.1907V98.2699Z" fill="white"/>
<path d="M27.9512 97.7756C27.9512 98.3173 27.891 98.8161 27.7706 99.272C27.6501 99.7234 27.4738 100.114 27.2416 100.443C27.0136 100.768 26.7319 101.023 26.3965 101.208C26.0653 101.389 25.6847 101.479 25.2546 101.479C24.9493 101.479 24.6697 101.425 24.416 101.317C24.1623 101.204 23.9537 101.069 23.7903 100.911V103.043L21.9646 103.998V94.0449H23.7903V94.4986C23.9924 94.3045 24.216 94.1555 24.4612 94.0517C24.7063 93.9434 24.9708 93.8892 25.2546 93.8892C25.6245 93.8892 25.9729 93.9637 26.2997 94.1126C26.6266 94.2616 26.9126 94.494 27.1577 94.81C27.4029 95.126 27.5964 95.53 27.7383 96.022C27.8802 96.5095 27.9512 97.094 27.9512 97.7756ZM26.0997 97.8163C26.0997 97.1256 25.9987 96.5998 25.7965 96.2387C25.5987 95.8775 25.3041 95.697 24.9127 95.697C24.6676 95.697 24.4569 95.7444 24.2805 95.8392C24.1085 95.934 23.9451 96.0897 23.7903 96.3064V99.0486C23.8677 99.1569 23.9451 99.2472 24.0225 99.3194C24.1042 99.3916 24.1967 99.4548 24.2999 99.509C24.4031 99.5631 24.5149 99.6038 24.6353 99.6308C24.7558 99.6579 24.8826 99.6715 25.016 99.6715C25.3686 99.6715 25.6374 99.5157 25.8223 99.2043C26.0073 98.8928 26.0997 98.4301 26.0997 97.8163Z" fill="white"/>
<path d="M34.3932 97.6876C34.3932 97.8275 34.3911 97.9472 34.3868 98.0465C34.3825 98.1458 34.376 98.2315 34.3674 98.3038H30.2194C30.2366 98.552 30.2882 98.7642 30.3742 98.9402C30.4645 99.1117 30.5742 99.2517 30.7032 99.36C30.8365 99.4683 30.9849 99.5473 31.1483 99.597C31.3118 99.6466 31.4773 99.6715 31.6451 99.6715C31.7698 99.6715 31.8859 99.6624 31.9934 99.6444C32.101 99.6218 32.2085 99.588 32.316 99.5428C32.4278 99.4932 32.5246 99.4367 32.6063 99.3736C32.6923 99.3104 32.7676 99.2404 32.8321 99.1637L34.1287 100.294C33.9911 100.484 33.8277 100.653 33.6385 100.802C33.4492 100.947 33.2449 101.071 33.0256 101.175C32.8063 101.274 32.5783 101.348 32.3418 101.398C32.1096 101.452 31.8773 101.479 31.6451 101.479C31.2623 101.479 30.9183 101.43 30.6129 101.33C30.3119 101.236 30.0474 101.107 29.8194 100.944C29.5915 100.782 29.3893 100.595 29.213 100.382C29.0367 100.166 28.8883 99.9265 28.7679 99.6647C28.6475 99.3984 28.5529 99.1027 28.4841 98.7777C28.4152 98.4482 28.3808 98.0848 28.3808 97.6876C28.3808 97.1324 28.4582 96.6223 28.6131 96.1574C28.7722 95.688 28.9894 95.2862 29.2646 94.9522C29.5442 94.6182 29.871 94.3586 30.2452 94.1736C30.6237 93.984 31.0322 93.8892 31.4709 93.8892C31.9354 93.8892 32.3482 93.9907 32.7095 94.1939C33.0708 94.3925 33.3761 94.6656 33.6256 95.0131C33.875 95.3562 34.0642 95.7579 34.1933 96.2184C34.3266 96.6788 34.3932 97.1685 34.3932 97.6876ZM32.6192 96.8616C32.6063 96.6991 32.5719 96.5388 32.516 96.3808C32.4644 96.2229 32.3869 96.0829 32.2837 95.9611C32.1848 95.8392 32.0601 95.7421 31.9096 95.6699C31.7633 95.5932 31.587 95.5548 31.3806 95.5548C31.2129 95.5548 31.0623 95.5887 30.929 95.6564C30.8 95.7241 30.686 95.8166 30.5871 95.934C30.4925 96.0513 30.4151 96.189 30.3549 96.347C30.299 96.505 30.2624 96.6765 30.2452 96.8616H32.6192Z" fill="white"/>
<path d="M42.2261 101.032C42.0756 101.159 41.8735 101.265 41.6197 101.351C41.366 101.436 41.0972 101.479 40.8133 101.479C40.5338 101.479 40.28 101.425 40.0521 101.317C39.8242 101.208 39.6285 101.057 39.4651 100.863C39.3059 100.665 39.1812 100.432 39.0909 100.166C39.0049 99.8994 38.9619 99.606 38.9619 99.2855V95.846H37.8007V94.0449H38.9619V92.1694L40.7875 91.2147V94.0449H42.4519V95.846H40.7875V98.7709C40.7875 98.947 40.8026 99.0914 40.8327 99.2043C40.8628 99.3171 40.9058 99.4074 40.9617 99.4751C41.0176 99.5383 41.0864 99.5834 41.1681 99.6105C41.2542 99.6331 41.3509 99.6444 41.4584 99.6444C41.6219 99.6444 41.781 99.6015 41.9358 99.5157C42.0949 99.43 42.2799 99.2878 42.4906 99.0892L42.2261 101.032Z" fill="white"/>
<path d="M47.7263 101.324V97.3829C47.7263 96.8052 47.6381 96.3808 47.4618 96.11C47.2898 95.8347 46.9866 95.697 46.5522 95.697C46.363 95.697 46.1952 95.7241 46.049 95.7782C45.9028 95.8324 45.7781 95.9227 45.6749 96.0491C45.5759 96.1755 45.4985 96.3447 45.4426 96.5569C45.391 96.7645 45.3652 97.0263 45.3652 97.3423V101.324H43.5396V92.1694L45.3652 91.2147V94.5256C45.4383 94.4444 45.5329 94.3654 45.6491 94.2887C45.7652 94.2074 45.892 94.1374 46.0297 94.0788C46.1673 94.0156 46.3135 93.9682 46.4683 93.9366C46.6275 93.905 46.8016 93.8892 46.9909 93.8892C47.4339 93.8892 47.8145 93.9682 48.1327 94.1262C48.4553 94.2796 48.7219 94.5008 48.9326 94.7897C49.1434 95.0741 49.2982 95.4217 49.3971 95.8324C49.5003 96.2432 49.552 96.7059 49.552 97.2204V101.324H47.7263Z" fill="white"/>
<path d="M56.252 97.6876C56.252 97.8275 56.2499 97.9472 56.2456 98.0465C56.2413 98.1458 56.2348 98.2315 56.2262 98.3038H52.0782C52.0954 98.552 52.147 98.7642 52.233 98.9402C52.3233 99.1117 52.433 99.2517 52.562 99.36C52.6953 99.4683 52.8437 99.5473 53.0071 99.597C53.1706 99.6466 53.3362 99.6715 53.5039 99.6715C53.6286 99.6715 53.7447 99.6624 53.8522 99.6444C53.9598 99.6218 54.0673 99.588 54.1748 99.5428C54.2866 99.4932 54.3834 99.4367 54.4651 99.3736C54.5511 99.3104 54.6264 99.2404 54.6909 99.1637L55.9875 100.294C55.8499 100.484 55.6865 100.653 55.4973 100.802C55.308 100.947 55.1037 101.071 54.8844 101.175C54.6651 101.274 54.4371 101.348 54.2006 101.398C53.9684 101.452 53.7361 101.479 53.5039 101.479C53.1211 101.479 52.7771 101.43 52.4717 101.33C52.1707 101.236 51.9062 101.107 51.6782 100.944C51.4503 100.782 51.2482 100.595 51.0718 100.382C50.8955 100.166 50.7471 99.9265 50.6267 99.6647C50.5063 99.3984 50.4117 99.1027 50.3429 98.7777C50.274 98.4482 50.2396 98.0848 50.2396 97.6876C50.2396 97.1324 50.317 96.6223 50.4719 96.1574C50.631 95.688 50.8482 95.2862 51.1234 94.9522C51.403 94.6182 51.7298 94.3586 52.104 94.1736C52.4825 93.984 52.891 93.8892 53.3297 93.8892C53.7942 93.8892 54.207 93.9907 54.5683 94.1939C54.9296 94.3925 55.2349 94.6656 55.4844 95.0131C55.7338 95.3562 55.923 95.7579 56.052 96.2184C56.1854 96.6788 56.252 97.1685 56.252 97.6876ZM54.478 96.8616C54.4651 96.6991 54.4307 96.5388 54.3748 96.3808C54.3232 96.2229 54.2457 96.0829 54.1425 95.9611C54.0436 95.8392 53.9189 95.7421 53.7684 95.6699C53.6221 95.5932 53.4458 95.5548 53.2394 95.5548C53.0717 95.5548 52.9211 95.5887 52.7878 95.6564C52.6588 95.7241 52.5448 95.8166 52.4459 95.934C52.3513 96.0513 52.2739 96.189 52.2137 96.347C52.1578 96.505 52.1212 96.6765 52.104 96.8616H54.478Z" fill="white"/>
<path d="M63.7946 93.0022C63.7043 92.9526 63.6097 92.9165 63.5108 92.8939C63.4119 92.8668 63.2957 92.8533 63.1624 92.8533C63.0205 92.8533 62.9044 92.8668 62.8141 92.8939C62.7237 92.9165 62.6549 92.9526 62.6076 93.0022C62.5646 93.0519 62.5324 93.1151 62.5109 93.1918C62.4937 93.2685 62.4851 93.3498 62.4851 93.4355V94.0449H63.6656V95.846H62.4851V101.324H60.6659V95.846H59.8337V94.0449H60.6659V93.1715C60.6659 92.8329 60.7089 92.5418 60.7949 92.298C60.8852 92.0543 61.0142 91.8557 61.1819 91.7022C61.3497 91.5487 61.5561 91.4359 61.8012 91.3637C62.0464 91.2915 62.3281 91.2553 62.6463 91.2553C62.8915 91.2553 63.1087 91.2757 63.2979 91.3163C63.4871 91.3524 63.6527 91.402 63.7946 91.4652V93.0022Z" fill="white"/>
<path d="M68.5658 101.324V100.836C68.4067 101.012 68.1874 101.163 67.9078 101.29C67.6283 101.416 67.3057 101.479 66.9402 101.479C66.1058 101.479 65.4693 101.197 65.0307 100.633C64.5963 100.069 64.3791 99.2404 64.3791 98.148V94.0449H66.2047V97.9788C66.2047 98.5656 66.2929 98.9944 66.4692 99.2652C66.6456 99.5361 66.9488 99.6715 67.3788 99.6715C67.8132 99.6715 68.1186 99.5338 68.2949 99.2584C68.4755 98.9786 68.5658 98.5678 68.5658 98.0262V94.0449H70.3915V101.324H68.5658Z" fill="white"/>
<path d="M75.3691 101.032C75.2186 101.159 75.0165 101.265 74.7627 101.351C74.509 101.436 74.2402 101.479 73.9563 101.479C73.6768 101.479 73.4231 101.425 73.1951 101.317C72.9672 101.208 72.7715 101.057 72.6081 100.863C72.4489 100.665 72.3242 100.432 72.2339 100.166C72.1479 99.8994 72.1049 99.606 72.1049 99.2855V95.846H70.9437V94.0449H72.1049V92.1694L73.9305 91.2147V94.0449H75.5949V95.846H73.9305V98.7709C73.9305 98.947 73.9456 99.0914 73.9757 99.2043C74.0058 99.3171 74.0488 99.4074 74.1047 99.4751C74.1606 99.5383 74.2294 99.5834 74.3112 99.6105C74.3972 99.6331 74.4939 99.6444 74.6015 99.6444C74.7649 99.6444 74.924 99.6015 75.0788 99.5157C75.238 99.43 75.4229 99.2878 75.6336 99.0892L75.3691 101.032Z" fill="white"/>
<path d="M80.7016 101.324V100.836C80.5425 101.012 80.3231 101.163 80.0436 101.29C79.764 101.416 79.4415 101.479 79.0759 101.479C78.2416 101.479 77.6051 101.197 77.1664 100.633C76.732 100.069 76.5148 99.2404 76.5148 98.148V94.0449H78.3405V97.9788C78.3405 98.5656 78.4287 98.9944 78.605 99.2652C78.7813 99.5361 79.0845 99.6715 79.5146 99.6715C79.9489 99.6715 80.2543 99.5338 80.4306 99.2584C80.6113 98.9786 80.7016 98.5678 80.7016 98.0262V94.0449H82.5272V101.324H80.7016Z" fill="white"/>
<path d="M87.692 96.2793C87.5457 96.1394 87.3845 96.0265 87.2081 95.9407C87.0318 95.8505 86.8404 95.8053 86.634 95.8053C86.2039 95.8053 85.9007 95.9362 85.7244 96.198C85.5481 96.4553 85.4599 96.8503 85.4599 97.3829V101.324H83.6342V94.0449H85.4599V94.5256C85.533 94.4444 85.619 94.3654 85.7179 94.2887C85.8212 94.2119 85.933 94.142 86.0534 94.0788C86.1781 94.0111 86.3114 93.9637 86.4534 93.9366C86.5953 93.905 86.7394 93.8892 86.8856 93.8892C87.1823 93.8892 87.4404 93.9434 87.6597 94.0517C87.879 94.1555 88.0489 94.2729 88.1693 94.4038L87.692 96.2793Z" fill="white"/>
<path d="M94.0888 97.6876C94.0888 97.8275 94.0867 97.9472 94.0824 98.0465C94.0781 98.1458 94.0716 98.2315 94.063 98.3038H89.915C89.9322 98.552 89.9838 98.7642 90.0698 98.9402C90.1601 99.1117 90.2698 99.2517 90.3988 99.36C90.5322 99.4683 90.6805 99.5473 90.8439 99.597C91.0074 99.6466 91.173 99.6715 91.3407 99.6715C91.4654 99.6715 91.5815 99.6624 91.689 99.6444C91.7966 99.6218 91.9041 99.588 92.0116 99.5428C92.1234 99.4932 92.2202 99.4367 92.3019 99.3736C92.3879 99.3104 92.4632 99.2404 92.5277 99.1637L93.8243 100.294C93.6867 100.484 93.5233 100.653 93.3341 100.802C93.1448 100.947 92.9405 101.071 92.7212 101.175C92.5019 101.274 92.2739 101.348 92.0374 101.398C91.8052 101.452 91.5729 101.479 91.3407 101.479C90.9579 101.479 90.6139 101.43 90.3085 101.33C90.0075 101.236 89.743 101.107 89.515 100.944C89.2871 100.782 89.085 100.595 88.9086 100.382C88.7323 100.166 88.5839 99.9265 88.4635 99.6647C88.3431 99.3984 88.2485 99.1027 88.1797 98.7777C88.1109 98.4482 88.0764 98.0848 88.0764 97.6876C88.0764 97.1324 88.1539 96.6223 88.3087 96.1574C88.4678 95.688 88.685 95.2862 88.9602 94.9522C89.2398 94.6182 89.5666 94.3586 89.9408 94.1736C90.3193 93.984 90.7278 93.8892 91.1665 93.8892C91.631 93.8892 92.0439 93.9907 92.4051 94.1939C92.7664 94.3925 93.0717 94.6656 93.3212 95.0131C93.5706 95.3562 93.7598 95.7579 93.8889 96.2184C94.0222 96.6788 94.0888 97.1685 94.0888 97.6876ZM92.3148 96.8616C92.3019 96.6991 92.2675 96.5388 92.2116 96.3808C92.16 96.2229 92.0826 96.0829 91.9793 95.9611C91.8804 95.8392 91.7557 95.7421 91.6052 95.6699C91.459 95.5932 91.2826 95.5548 91.0762 95.5548C90.9085 95.5548 90.7579 95.5887 90.6246 95.6564C90.4956 95.7241 90.3816 95.8166 90.2827 95.934C90.1881 96.0513 90.1107 96.189 90.0505 96.347C89.9946 96.505 89.958 96.6765 89.9408 96.8616H92.3148Z" fill="white"/>
<path d="M104.488 101.602H102.972L101.914 97.2285L100.856 101.602H99.3332L97.3398 94.3238H99.1913L100.127 98.4946L101.185 94.3238H102.694L103.746 98.4946L104.688 94.3238H106.481L104.488 101.602Z" fill="white"/>
<path d="M109.33 92.6311C109.33 92.78 109.302 92.9222 109.246 93.0577C109.19 93.1886 109.114 93.3037 109.02 93.403C108.925 93.5023 108.813 93.5813 108.684 93.6399C108.56 93.6986 108.426 93.728 108.284 93.728C108.143 93.728 108.007 93.6986 107.878 93.6399C107.753 93.5813 107.644 93.5023 107.549 93.403C107.454 93.3037 107.379 93.1886 107.323 93.0577C107.267 92.9222 107.239 92.78 107.239 92.6311C107.239 92.4821 107.267 92.3422 107.323 92.2113C107.379 92.0759 107.454 91.9585 107.549 91.8592C107.644 91.7599 107.753 91.6809 107.878 91.6222C108.007 91.5636 108.143 91.5342 108.284 91.5342C108.426 91.5342 108.56 91.5636 108.684 91.6222C108.813 91.6809 108.925 91.7599 109.02 91.8592C109.114 91.9585 109.19 92.0759 109.246 92.2113C109.302 92.3422 109.33 92.4821 109.33 92.6311ZM107.368 101.602V94.3238H109.194V101.602H107.368Z" fill="white"/>
<path d="M114.507 101.311C114.356 101.438 114.154 101.544 113.9 101.629C113.647 101.715 113.378 101.758 113.094 101.758C112.815 101.758 112.561 101.704 112.333 101.596C112.105 101.487 111.909 101.336 111.746 101.142C111.587 100.943 111.462 100.711 111.372 100.445C111.286 100.178 111.243 99.8849 111.243 99.5644V96.1248H110.081V94.3238H111.243V92.4483L113.068 91.4936V94.3238H114.733V96.1248H113.068V99.0498C113.068 99.2259 113.083 99.3703 113.113 99.4832C113.144 99.596 113.187 99.6863 113.242 99.754C113.298 99.8172 113.367 99.8623 113.449 99.8894C113.535 99.912 113.632 99.9233 113.739 99.9233C113.903 99.9233 114.062 99.8804 114.217 99.7946C114.376 99.7088 114.561 99.5667 114.771 99.368L114.507 101.311Z" fill="white"/>
<path d="M120.271 101.602V97.6618C120.271 97.084 120.183 96.6597 120.007 96.3889C119.835 96.1135 119.532 95.9759 119.097 95.9759C118.908 95.9759 118.74 96.003 118.594 96.0571C118.448 96.1113 118.323 96.2016 118.22 96.328C118.121 96.4543 118.044 96.6236 117.988 96.8358C117.936 97.0434 117.91 97.3052 117.91 97.6212V101.602H116.085V92.4483L117.91 91.4936V94.8045C117.983 94.7233 118.078 94.6443 118.194 94.5675C118.31 94.4863 118.437 94.4163 118.575 94.3576C118.712 94.2944 118.859 94.247 119.013 94.2155C119.172 94.1839 119.347 94.1681 119.536 94.1681C119.979 94.1681 120.359 94.2471 120.678 94.405C121 94.5585 121.267 94.7797 121.478 95.0686C121.688 95.353 121.843 95.7005 121.942 96.1113C122.045 96.5221 122.097 96.9847 122.097 97.4993V101.602H120.271Z" fill="white"/>
<path d="M132.574 100.133C132.406 100.368 132.228 100.585 132.039 100.783C131.854 100.982 131.647 101.153 131.419 101.298C131.191 101.442 130.94 101.555 130.665 101.636C130.389 101.718 130.08 101.758 129.736 101.758C129.284 101.758 128.86 101.666 128.465 101.481C128.069 101.295 127.723 101.036 127.426 100.702C127.134 100.368 126.904 99.9684 126.736 99.5035C126.568 99.0385 126.484 98.5262 126.484 97.9665C126.484 97.4113 126.566 96.9012 126.729 96.4363C126.897 95.9668 127.129 95.5651 127.426 95.2311C127.723 94.897 128.073 94.6375 128.478 94.4524C128.886 94.2628 129.331 94.1681 129.813 94.1681C130.398 94.1681 130.918 94.3035 131.374 94.5743C131.83 94.8406 132.226 95.2424 132.561 95.7795L131.361 97.0524C131.258 96.899 131.151 96.759 131.039 96.6326C130.931 96.5063 130.815 96.3979 130.69 96.3076C130.566 96.2174 130.428 96.1474 130.277 96.0977C130.127 96.0436 129.959 96.0165 129.774 96.0165C129.555 96.0165 129.357 96.0639 129.181 96.1587C129.004 96.249 128.854 96.3799 128.729 96.5514C128.605 96.7184 128.508 96.9215 128.439 97.1608C128.37 97.4 128.336 97.6686 128.336 97.9665C128.336 98.2599 128.37 98.5262 128.439 98.7654C128.508 99.0002 128.605 99.2033 128.729 99.3748C128.854 99.5463 129.004 99.6795 129.181 99.7743C129.357 99.8646 129.555 99.9097 129.774 99.9097C129.951 99.9097 130.112 99.8894 130.258 99.8488C130.409 99.8081 130.548 99.7495 130.677 99.6727C130.811 99.5915 130.936 99.4944 131.052 99.3816C131.172 99.2642 131.292 99.1311 131.413 98.9821L132.574 100.133Z" fill="white"/>
<path d="M139.293 97.9665C139.293 98.5262 139.214 99.0385 139.055 99.5035C138.9 99.9684 138.68 100.368 138.397 100.702C138.117 101.036 137.784 101.295 137.397 101.481C137.014 101.666 136.597 101.758 136.145 101.758C135.694 101.758 135.276 101.666 134.894 101.481C134.511 101.295 134.18 101.036 133.9 100.702C133.625 100.368 133.408 99.9684 133.249 99.5035C133.094 99.0385 133.016 98.5262 133.016 97.9665C133.016 97.4113 133.094 96.9012 133.249 96.4363C133.408 95.9668 133.625 95.5651 133.9 95.2311C134.18 94.897 134.511 94.6375 134.894 94.4524C135.276 94.2628 135.694 94.1681 136.145 94.1681C136.597 94.1681 137.014 94.2628 137.397 94.4524C137.784 94.6375 138.117 94.897 138.397 95.2311C138.68 95.5651 138.9 95.9668 139.055 96.4363C139.214 96.9012 139.293 97.4113 139.293 97.9665ZM137.442 97.9665C137.442 97.6911 137.414 97.4361 137.358 97.2014C137.306 96.9621 137.227 96.7545 137.119 96.5785C137.012 96.4024 136.876 96.2648 136.713 96.1655C136.554 96.0661 136.364 96.0165 136.145 96.0165C135.926 96.0165 135.737 96.0661 135.577 96.1655C135.418 96.2648 135.285 96.4024 135.177 96.5785C135.074 96.75 134.997 96.9554 134.945 97.1946C134.894 97.4293 134.868 97.6866 134.868 97.9665C134.868 98.2463 134.894 98.5059 134.945 98.7451C134.997 98.9844 135.074 99.1898 135.177 99.3613C135.285 99.5328 135.418 99.6682 135.577 99.7675C135.737 99.8623 135.926 99.9097 136.145 99.9097C136.364 99.9097 136.554 99.8578 136.713 99.754C136.876 99.6457 137.012 99.5012 137.119 99.3207C137.227 99.1401 137.306 98.9325 137.358 98.6977C137.414 98.463 137.442 98.2193 137.442 97.9665Z" fill="white"/>
<path d="M144.503 101.602V97.6618C144.503 97.0885 144.415 96.6642 144.238 96.3889C144.066 96.1135 143.763 95.9759 143.329 95.9759C143.14 95.9759 142.972 96.003 142.826 96.0571C142.679 96.1113 142.555 96.2016 142.451 96.328C142.353 96.4543 142.275 96.6236 142.219 96.8358C142.168 97.0434 142.142 97.3052 142.142 97.6212V101.602H140.316V94.3238H142.142V94.8045C142.219 94.7233 142.312 94.6443 142.419 94.5675C142.531 94.4908 142.66 94.4208 142.806 94.3576C142.952 94.2899 143.105 94.2425 143.264 94.2155C143.428 94.1839 143.595 94.1681 143.767 94.1681C144.21 94.1681 144.591 94.2471 144.909 94.405C145.232 94.5585 145.499 94.7797 145.709 95.0686C145.92 95.353 146.075 95.7005 146.174 96.1113C146.277 96.5221 146.329 96.9847 146.329 97.4993V101.602H144.503Z" fill="white"/>
<path d="M154.248 92.6311C154.248 92.78 154.22 92.9222 154.164 93.0577C154.108 93.1886 154.033 93.3037 153.938 93.403C153.843 93.5023 153.732 93.5813 153.603 93.6399C153.478 93.6986 153.344 93.728 153.203 93.728C153.061 93.728 152.925 93.6986 152.796 93.6399C152.671 93.5813 152.562 93.5023 152.467 93.403C152.373 93.3037 152.297 93.1886 152.241 93.0577C152.185 92.9222 152.157 92.78 152.157 92.6311C152.157 92.4821 152.185 92.3422 152.241 92.2113C152.297 92.0759 152.373 91.9585 152.467 91.8592C152.562 91.7599 152.671 91.6809 152.796 91.6222C152.925 91.5636 153.061 91.5342 153.203 91.5342C153.344 91.5342 153.478 91.5636 153.603 91.6222C153.732 91.6809 153.843 91.7599 153.938 91.8592C154.033 91.9585 154.108 92.0759 154.164 92.2113C154.22 92.3422 154.248 92.4821 154.248 92.6311ZM151.009 93.2811C150.919 93.2314 150.824 93.1953 150.725 93.1727C150.626 93.1457 150.51 93.1321 150.377 93.1321C150.106 93.1321 149.925 93.1795 149.835 93.2743C149.745 93.3646 149.7 93.5113 149.7 93.7144V94.3238H150.88V96.1248H149.7V101.602H147.88V96.1248H147.048V94.3238H147.88V93.4504C147.88 93.1118 147.923 92.8207 148.009 92.5769C148.1 92.3332 148.229 92.1346 148.397 91.9811C148.564 91.8276 148.771 91.7148 149.016 91.6425C149.261 91.5703 149.543 91.5342 149.861 91.5342C150.102 91.5342 150.317 91.5523 150.506 91.5884C150.695 91.6245 150.863 91.6764 151.009 91.7441V93.2811ZM152.293 101.602V94.3238H154.119V101.602H152.293Z" fill="white"/>
<path d="M159.367 101.602V101.142C159.277 101.228 159.184 101.304 159.09 101.372C158.995 101.435 158.887 101.501 158.767 101.569C158.647 101.632 158.515 101.679 158.373 101.711C158.232 101.742 158.075 101.758 157.903 101.758C157.533 101.758 157.184 101.684 156.857 101.535C156.531 101.381 156.245 101.147 155.999 100.831C155.754 100.515 155.561 100.113 155.419 99.6253C155.277 99.1333 155.206 98.5488 155.206 97.8717C155.206 97.33 155.266 96.8335 155.387 96.3821C155.507 95.9262 155.681 95.5358 155.909 95.2108C156.137 94.8813 156.419 94.6262 156.754 94.4457C157.09 94.2606 157.472 94.1681 157.903 94.1681C158.062 94.1681 158.21 94.1816 158.348 94.2087C158.485 94.2358 158.621 94.2809 158.754 94.3441C158.887 94.4028 159.001 94.4637 159.096 94.5269C159.195 94.5901 159.285 94.6601 159.367 94.7368V92.4483L161.193 91.4936V101.602H159.367ZM159.367 96.5988C159.298 96.4995 159.225 96.4137 159.148 96.3415C159.07 96.2693 158.98 96.2061 158.877 96.1519C158.778 96.0932 158.664 96.0503 158.535 96.0233C158.41 95.9917 158.279 95.9759 158.141 95.9759C157.789 95.9759 157.52 96.1316 157.335 96.443C157.15 96.7545 157.057 97.2172 157.057 97.8311C157.057 98.2057 157.085 98.5262 157.141 98.7925C157.197 99.0588 157.277 99.2778 157.38 99.4493C157.483 99.6208 157.608 99.7472 157.754 99.8285C157.9 99.9097 158.064 99.9503 158.244 99.9503C158.386 99.9503 158.511 99.9368 158.619 99.9097C158.73 99.8781 158.829 99.8352 158.915 99.7811C159.006 99.7269 159.087 99.6637 159.161 99.5915C159.234 99.5148 159.302 99.4312 159.367 99.341V96.5988Z" fill="white"/>
<path d="M168.254 97.9665C168.254 98.1064 168.252 98.226 168.247 98.3253C168.243 98.4246 168.236 98.5104 168.228 98.5826H164.08C164.097 98.8309 164.149 99.043 164.235 99.2191C164.325 99.3906 164.435 99.5305 164.564 99.6389C164.697 99.7472 164.845 99.8262 165.009 99.8759C165.172 99.9255 165.338 99.9503 165.506 99.9503C165.63 99.9503 165.746 99.9413 165.854 99.9233C165.961 99.9007 166.069 99.8668 166.176 99.8217C166.288 99.772 166.385 99.7156 166.467 99.6524C166.553 99.5892 166.628 99.5193 166.693 99.4425L167.989 100.573C167.852 100.763 167.688 100.932 167.499 101.081C167.31 101.226 167.105 101.35 166.886 101.453C166.667 101.553 166.439 101.627 166.202 101.677C165.97 101.731 165.738 101.758 165.506 101.758C165.123 101.758 164.779 101.708 164.473 101.609C164.172 101.514 163.908 101.386 163.68 101.223C163.452 101.061 163.25 100.873 163.073 100.661C162.897 100.445 162.749 100.205 162.628 99.9436C162.508 99.6772 162.413 99.3816 162.345 99.0566C162.276 98.7271 162.241 98.3637 162.241 97.9665C162.241 97.4113 162.319 96.9012 162.474 96.4363C162.633 95.9668 162.85 95.5651 163.125 95.2311C163.405 94.897 163.731 94.6375 164.106 94.4524C164.484 94.2628 164.893 94.1681 165.331 94.1681C165.796 94.1681 166.209 94.2696 166.57 94.4727C166.931 94.6714 167.237 94.9444 167.486 95.292C167.735 95.6351 167.925 96.0368 168.054 96.4972C168.187 96.9576 168.254 97.4474 168.254 97.9665ZM166.48 97.1405C166.467 96.978 166.432 96.8177 166.376 96.6597C166.325 96.5017 166.247 96.3618 166.144 96.2399C166.045 96.1181 165.921 96.021 165.77 95.9488C165.624 95.8721 165.447 95.8337 165.241 95.8337C165.073 95.8337 164.923 95.8675 164.789 95.9352C164.66 96.0029 164.546 96.0955 164.448 96.2128C164.353 96.3302 164.276 96.4679 164.215 96.6259C164.159 96.7839 164.123 96.9554 164.106 97.1405H166.48Z" fill="white"/>
<path d="M173.496 101.602V97.6618C173.496 97.0885 173.407 96.6642 173.231 96.3889C173.059 96.1135 172.756 95.9759 172.321 95.9759C172.132 95.9759 171.964 96.003 171.818 96.0571C171.672 96.1113 171.547 96.2016 171.444 96.328C171.345 96.4543 171.268 96.6236 171.212 96.8358C171.16 97.0434 171.134 97.3052 171.134 97.6212V101.602H169.309V94.3238H171.134V94.8045C171.212 94.7233 171.304 94.6443 171.412 94.5675C171.524 94.4908 171.653 94.4208 171.799 94.3576C171.945 94.2899 172.098 94.2425 172.257 94.2155C172.42 94.1839 172.588 94.1681 172.76 94.1681C173.203 94.1681 173.584 94.2471 173.902 94.405C174.225 94.5585 174.491 94.7797 174.702 95.0686C174.913 95.353 175.067 95.7005 175.166 96.1113C175.27 96.5221 175.321 96.9847 175.321 97.4993V101.602H173.496Z" fill="white"/>
<path d="M182.363 100.133C182.195 100.368 182.017 100.585 181.827 100.783C181.643 100.982 181.436 101.153 181.208 101.298C180.98 101.442 180.729 101.555 180.453 101.636C180.178 101.718 179.869 101.758 179.524 101.758C179.073 101.758 178.649 101.666 178.254 101.481C177.858 101.295 177.512 101.036 177.215 100.702C176.922 100.368 176.692 99.9684 176.525 99.5035C176.357 99.0385 176.273 98.5262 176.273 97.9665C176.273 97.4113 176.355 96.9012 176.518 96.4363C176.686 95.9668 176.918 95.5651 177.215 95.2311C177.512 94.897 177.862 94.6375 178.267 94.4524C178.675 94.2628 179.12 94.1681 179.602 94.1681C180.187 94.1681 180.707 94.3035 181.163 94.5743C181.619 94.8406 182.015 95.2424 182.35 95.7795L181.15 97.0524C181.047 96.899 180.939 96.759 180.828 96.6326C180.72 96.5063 180.604 96.3979 180.479 96.3076C180.354 96.2174 180.217 96.1474 180.066 96.0977C179.916 96.0436 179.748 96.0165 179.563 96.0165C179.344 96.0165 179.146 96.0639 178.97 96.1587C178.793 96.249 178.643 96.3799 178.518 96.5514C178.393 96.7184 178.297 96.9215 178.228 97.1608C178.159 97.4 178.125 97.6686 178.125 97.9665C178.125 98.2599 178.159 98.5262 178.228 98.7654C178.297 99.0002 178.393 99.2033 178.518 99.3748C178.643 99.5463 178.793 99.6795 178.97 99.7743C179.146 99.8646 179.344 99.9097 179.563 99.9097C179.739 99.9097 179.901 99.8894 180.047 99.8488C180.198 99.8081 180.337 99.7495 180.466 99.6727C180.6 99.5915 180.724 99.4944 180.84 99.3816C180.961 99.2642 181.081 99.1311 181.202 98.9821L182.363 100.133Z" fill="white"/>
<path d="M188.818 97.9665C188.818 98.1064 188.815 98.226 188.811 98.3253C188.807 98.4246 188.8 98.5104 188.792 98.5826H184.644C184.661 98.8309 184.713 99.043 184.799 99.2191C184.889 99.3906 184.999 99.5305 185.128 99.6389C185.261 99.7472 185.409 99.8262 185.573 99.8759C185.736 99.9255 185.902 99.9503 186.069 99.9503C186.194 99.9503 186.31 99.9413 186.418 99.9233C186.525 99.9007 186.633 99.8668 186.74 99.8217C186.852 99.772 186.949 99.7156 187.031 99.6524C187.117 99.5892 187.192 99.5193 187.256 99.4425L188.553 100.573C188.415 100.763 188.252 100.932 188.063 101.081C187.874 101.226 187.669 101.35 187.45 101.453C187.231 101.553 187.003 101.627 186.766 101.677C186.534 101.731 186.302 101.758 186.069 101.758C185.687 101.758 185.343 101.708 185.037 101.609C184.736 101.514 184.472 101.386 184.244 101.223C184.016 101.061 183.814 100.873 183.637 100.661C183.461 100.445 183.313 100.205 183.192 99.9436C183.072 99.6772 182.977 99.3816 182.908 99.0566C182.84 98.7271 182.805 98.3637 182.805 97.9665C182.805 97.4113 182.883 96.9012 183.037 96.4363C183.197 95.9668 183.414 95.5651 183.689 95.2311C183.969 94.897 184.295 94.6375 184.67 94.4524C185.048 94.2628 185.457 94.1681 185.895 94.1681C186.36 94.1681 186.773 94.2696 187.134 94.4727C187.495 94.6714 187.8 94.9444 188.05 95.292C188.299 95.6351 188.489 96.0368 188.618 96.4972C188.751 96.9576 188.818 97.4474 188.818 97.9665ZM187.044 97.1405C187.031 96.978 186.996 96.8177 186.94 96.6597C186.889 96.5017 186.811 96.3618 186.708 96.2399C186.609 96.1181 186.484 96.021 186.334 95.9488C186.188 95.8721 186.011 95.8337 185.805 95.8337C185.637 95.8337 185.487 95.8675 185.353 95.9352C185.224 96.0029 185.11 96.0955 185.011 96.2128C184.917 96.3302 184.839 96.4679 184.779 96.6259C184.723 96.7839 184.687 96.9554 184.67 97.1405H187.044Z" fill="white"/>
<path d="M90.9314 70.6988C90.9314 71.7966 90.7622 72.7976 90.4237 73.7018C90.0853 74.6059 89.5623 75.3863 88.8547 76.0429C88.1471 76.6887 87.2498 77.1892 86.1627 77.5443C85.0757 77.8995 83.7784 78.0771 82.2709 78.0771C81.3479 78.0771 80.4608 77.9749 79.6096 77.7704C78.7585 77.5766 77.9637 77.3022 77.2253 76.947C76.4869 76.581 75.8152 76.1397 75.2102 75.623C74.6154 75.0956 74.1128 74.509 73.7026 73.8632L76.8869 70.8925C77.656 71.8397 78.5226 72.5178 79.4866 72.9268C80.4506 73.3358 81.4607 73.5403 82.517 73.5403C83.2656 73.5403 83.8707 73.4865 84.3322 73.3789C84.7937 73.2605 85.1782 73.1044 85.4859 72.9107C85.8038 72.7062 86.0294 72.4693 86.1627 72.2003C86.296 71.9312 86.3627 71.5383 86.3627 71.0217C86.3627 70.6557 86.3012 70.3328 86.1781 70.0529C86.055 69.7623 85.814 69.4986 85.4551 69.2618C85.1064 69.025 84.6091 68.799 83.963 68.5837C83.3272 68.3685 82.4862 68.137 81.4402 67.8895C80.4249 67.6419 79.4917 67.3567 78.6405 67.0338C77.7996 66.7109 77.0766 66.2911 76.4715 65.7745C75.8665 65.2578 75.3948 64.6174 75.0563 63.8532C74.7179 63.0782 74.5487 62.1202 74.5487 60.9793C74.5487 59.9353 74.7538 58.9935 75.164 58.1539C75.5742 57.3144 76.1331 56.604 76.8407 56.0227C77.5586 55.4307 78.3944 54.9787 79.3481 54.6665C80.3121 54.3544 81.3377 54.1983 82.4247 54.1983C83.2656 54.1983 84.0604 54.279 84.809 54.4405C85.5679 54.5912 86.3063 54.8441 87.0242 55.1993C87.7523 55.5545 88.3676 55.9312 88.8701 56.3295C89.3726 56.7277 89.9007 57.2282 90.4545 57.831L87.2703 61.0762C86.8498 60.6241 86.4806 60.2743 86.1627 60.0267C85.8448 59.7792 85.4807 59.5532 85.0705 59.3486C84.6603 59.1334 84.2296 58.9719 83.7784 58.8643C83.3271 58.7459 82.8247 58.6867 82.2709 58.6867C81.6761 58.6867 81.1787 58.7513 80.7787 58.8804C80.3788 58.9988 80.0557 59.1549 79.8096 59.3486C79.5635 59.5424 79.384 59.763 79.2712 60.0106C79.1687 60.2582 79.1174 60.5111 79.1174 60.7694C79.1174 61.1354 79.1841 61.4475 79.3174 61.7059C79.4507 61.9642 79.6866 62.1956 80.025 62.4001C80.3634 62.5939 80.8146 62.7822 81.3787 62.9652C81.953 63.1374 82.6811 63.3311 83.563 63.5464C84.8142 63.8586 85.8551 64.1869 86.6857 64.5313C87.5164 64.865 88.2496 65.2955 88.8855 65.8229C89.5213 66.3503 90.0187 67.0176 90.3776 67.8249C90.7468 68.6322 90.9314 69.5901 90.9314 70.6988Z" fill="white"/>
<path d="M104.629 77.0116C104.271 77.3129 103.789 77.5659 103.183 77.7704C102.578 77.9749 101.937 78.0771 101.261 78.0771C100.594 78.0771 99.989 77.948 99.4454 77.6897C98.9019 77.4313 98.4353 77.0707 98.0456 76.6079C97.6662 76.1343 97.3688 75.58 97.1534 74.945C96.9483 74.3099 96.8457 73.6103 96.8457 72.8461V64.6443H94.0768V60.3497H96.8457V55.8774L101.199 53.601V60.3497H105.168V64.6443H101.199V71.619C101.199 72.0388 101.235 72.3833 101.307 72.6523C101.379 72.9214 101.481 73.1367 101.614 73.2981C101.748 73.4488 101.912 73.5565 102.107 73.6211C102.312 73.6749 102.543 73.7018 102.799 73.7018C103.189 73.7018 103.568 73.5995 103.937 73.395C104.317 73.1905 104.758 72.8515 105.26 72.3779L104.629 77.0116Z" fill="white"/>
<path d="M136.613 77.9809V76.883C136.398 77.0875 136.178 77.2705 135.952 77.4319C135.726 77.5826 135.47 77.7387 135.183 77.9002C134.896 78.0509 134.583 78.1639 134.244 78.2392C133.906 78.3146 133.532 78.3522 133.121 78.3522C132.24 78.3522 131.409 78.1746 130.629 77.8194C129.85 77.4535 129.168 76.8938 128.584 76.1403C127.999 75.3869 127.537 74.4289 127.199 73.2665C126.861 72.0933 126.691 69.7139 126.691 68.0994C126.691 66.8078 126.835 66.6092 127.122 65.5329C127.409 64.4458 127.825 63.5148 128.368 62.7398C128.912 61.954 129.583 61.3459 130.383 60.9154C131.183 60.4741 132.096 60.2534 133.121 60.2534C133.501 60.2534 133.855 60.2857 134.183 60.3503C134.511 60.4149 134.834 60.5225 135.152 60.6732C135.47 60.8131 135.742 60.9584 135.967 61.1091C136.203 61.2598 136.419 61.4266 136.613 61.6096V56.1525L140.967 53.876V77.9809H136.613ZM136.613 66.0496C136.449 65.8128 136.275 65.6083 136.09 65.436C135.906 65.2638 135.69 65.1131 135.444 64.984C135.208 64.844 134.937 64.7418 134.629 64.6772C134.332 64.6019 134.019 64.5642 133.691 64.5642C132.85 64.5642 132.209 64.9355 131.768 65.6782C131.327 66.4209 131.106 67.5242 131.106 68.988C131.106 69.8814 131.173 70.6456 131.306 71.2806C131.44 71.9157 131.629 72.4377 131.875 72.8467C132.122 73.2557 132.419 73.5571 132.768 73.7508C133.116 73.9446 133.506 74.0414 133.937 74.0414C134.275 74.0414 134.573 74.0091 134.829 73.9446C135.096 73.8692 135.331 73.767 135.537 73.6378C135.752 73.5087 135.947 73.358 136.121 73.1858C136.295 73.0028 136.46 72.8036 136.613 72.5884V66.0496Z" fill="white"/>
<path d="M150.365 57.4035C150.498 57.0806 150.565 56.7415 150.565 56.3863C150.565 56.0311 150.498 55.6974 150.365 55.3853C150.231 55.0624 150.052 54.7825 149.826 54.5457C149.601 54.3089 149.334 54.1206 149.026 53.9807C148.729 53.8408 148.411 53.7708 148.073 53.7708C147.734 53.7708 147.411 53.8408 147.104 53.9807C146.806 54.1206 146.545 54.3089 146.319 54.5457C146.093 54.7825 145.914 55.0624 145.781 55.3853C145.647 55.6974 145.581 56.0311 145.581 56.3863C145.581 56.7415 145.647 57.0806 145.781 57.4035C145.914 57.7156 146.093 57.9901 146.319 58.2269C146.545 58.4637 146.806 58.652 147.104 58.7919C147.411 58.9319 147.734 59.0018 148.073 59.0018C148.411 59.0018 148.729 58.9319 149.026 58.7919C149.334 58.652 149.601 58.4637 149.826 58.2269C150.052 57.9901 150.231 57.7156 150.365 57.4035Z" fill="white"/>
<path d="M145.904 60.4226V77.7788H150.257V60.4226H145.904Z" fill="white"/>
<path d="M169.632 69.0358C169.632 70.3705 169.442 71.5921 169.063 72.7008C168.694 73.8094 168.171 74.762 167.494 75.5585C166.827 76.355 166.032 76.9739 165.109 77.4152C164.197 77.8565 163.202 78.0771 162.125 78.0771C161.048 78.0771 160.054 77.8565 159.141 77.4152C158.228 76.9739 157.438 76.355 156.772 75.5585C156.116 74.762 155.598 73.8094 155.218 72.7008C154.849 71.5921 154.664 70.3705 154.664 69.0358C154.664 67.7119 154.849 66.4956 155.218 65.387C155.598 64.2676 156.116 63.3096 156.772 62.5131C157.438 61.7166 158.228 61.0977 159.141 60.6564C160.054 60.2043 161.048 59.9783 162.125 59.9783C163.202 59.9783 164.197 60.2043 165.109 60.6564C166.032 61.0977 166.827 61.7166 167.494 62.5131C168.171 63.3096 168.694 64.2676 169.063 65.387C169.442 66.4956 169.632 67.7119 169.632 69.0358ZM165.217 69.0358C165.217 68.3792 165.15 67.7711 165.017 67.2114C164.894 66.6409 164.704 66.1458 164.448 65.726C164.192 65.3063 163.868 64.978 163.479 64.7412C163.099 64.5044 162.648 64.386 162.125 64.386C161.602 64.386 161.151 64.5044 160.771 64.7412C160.392 64.978 160.074 65.3063 159.818 65.726C159.572 66.1351 159.387 66.6248 159.264 67.1953C159.141 67.755 159.079 68.3685 159.079 69.0358C159.079 69.7031 159.141 70.322 159.264 70.8925C159.387 71.463 159.572 71.9527 159.818 72.3617C160.074 72.7707 160.392 73.0936 160.771 73.3304C161.151 73.5565 161.602 73.6695 162.125 73.6695C162.648 73.6695 163.099 73.5457 163.479 73.2982C163.868 73.0398 164.192 72.6954 164.448 72.2649C164.704 71.8343 164.894 71.3392 165.017 70.7795C165.15 70.2198 165.217 69.6386 165.217 69.0358Z" fill="white"/>
<path d="M118.395 77.8595V76.697C118.015 77.1168 117.492 77.4774 116.825 77.7788C116.159 78.0801 115.39 78.2308 114.518 78.2308C112.529 78.2308 111.011 77.5581 109.965 76.2127C108.929 74.8672 108.411 72.8921 108.411 70.2874V60.5033H112.764V69.8837C112.764 71.283 112.975 72.3055 113.395 72.9513C113.816 73.5971 114.539 73.92 115.564 73.92C116.6 73.92 117.328 73.5918 117.748 72.9352C118.179 72.2679 118.395 71.2884 118.395 69.9968V60.5033H122.748V77.8595H118.395Z" fill="white"/>
<path d="M182.611 67.812H188.818V71.3657H182.611V77.8882H179.225V71.3657H173.018V67.812H179.225V61.3052H182.611V67.812Z" fill="url(#paint0_linear_25_3958)"/>
<defs>
<linearGradient id="paint0_linear_25_3958" x1="178.378" y1="72.2618" x2="189.322" y2="61.8349" gradientUnits="userSpaceOnUse">
<stop stop-color="#FFE600"/>
<stop offset="0.305908" stop-color="#FC35FF"/>
<stop offset="0.575393" stop-color="#68C8FF"/>
</linearGradient>
</defs>
</svg>
