<svg width="208" height="109" viewBox="0 0 208 109" fill="none" xmlns="http://www.w3.org/2000/svg">
<path d="M12.2736 66.1928H27.6158V57.2196H12.2736V51.2375H29.15L23.366 41.6512L0 41.5166L0.0997383 81.8958H32.9702L32.9856 72.9227H12.2736V66.1928Z" fill="#4E4E4E"/>
<path d="M54.8169 41.5166L47.8482 54.7894L40.9022 41.5166H27.2984L41.4102 65.7965V81.8958H53.543V65.8189L68.2463 41.5166H54.8169Z" fill="#4E4E4E"/>
<path d="M80.1894 0L0 29.0048L80.1894 14.9692V0Z" fill="#FFE600"/>
<path d="M7.94806 103.117C7.94806 103.6 7.87 104.04 7.71388 104.437C7.55775 104.834 7.31647 105.177 6.99004 105.466C6.6636 105.75 6.24964 105.97 5.74815 106.126C5.24667 106.282 4.6482 106.36 3.95274 106.36C3.52695 106.36 3.11772 106.315 2.72505 106.225C2.33238 106.14 1.96573 106.02 1.62509 105.863C1.28446 105.703 0.974584 105.509 0.695455 105.282C0.421058 105.05 0.18924 104.792 0 104.508L1.46897 103.202C1.8238 103.619 2.22356 103.917 2.66828 104.096C3.11299 104.276 3.57899 104.366 4.06628 104.366C4.41165 104.366 4.69078 104.342 4.90367 104.295C5.11656 104.243 5.29398 104.174 5.43591 104.089C5.58257 103.999 5.68665 103.895 5.74815 103.777C5.80965 103.659 5.84041 103.486 5.84041 103.259C5.84041 103.098 5.81202 102.956 5.75525 102.833C5.69848 102.705 5.5873 102.59 5.42171 102.486C5.26086 102.381 5.03141 102.282 4.73335 102.187C4.44003 102.093 4.05209 101.991 3.56953 101.882C3.10116 101.773 2.67064 101.648 2.27797 101.506C1.89003 101.364 1.5565 101.18 1.27737 100.953C0.998239 100.726 0.780613 100.444 0.62449 100.108C0.468368 99.7676 0.390307 99.3465 0.390307 98.845C0.390307 98.3861 0.484926 97.9722 0.674166 97.6031C0.863405 97.2341 1.12124 96.9219 1.44768 96.6664C1.77885 96.4062 2.16443 96.2075 2.60441 96.0703C3.04912 95.9331 3.52222 95.8645 4.02371 95.8645C4.41165 95.8645 4.7783 95.9 5.12366 95.9709C5.47375 96.0372 5.81439 96.1484 6.14555 96.3045C6.48145 96.4606 6.76531 96.6262 6.99713 96.8012C7.22895 96.9763 7.4726 97.1963 7.72807 97.4612L6.2591 98.8876C6.06513 98.6889 5.89481 98.5351 5.74815 98.4263C5.60149 98.3175 5.43354 98.2182 5.2443 98.1283C5.05506 98.0336 4.85636 97.9627 4.6482 97.9154C4.44003 97.8633 4.20821 97.8373 3.95274 97.8373C3.67834 97.8373 3.44889 97.8657 3.26438 97.9225C3.07987 97.9745 2.93085 98.0431 2.8173 98.1283C2.70376 98.2134 2.62097 98.3104 2.56893 98.4192C2.52162 98.528 2.49796 98.6392 2.49796 98.7528C2.49796 98.9136 2.52871 99.0508 2.59022 99.1644C2.65172 99.2779 2.76053 99.3796 2.91665 99.4695C3.07278 99.5547 3.28094 99.6375 3.54114 99.7179C3.80608 99.7936 4.14198 99.8787 4.54885 99.9734C5.12603 100.111 5.60622 100.255 5.98943 100.406C6.37264 100.553 6.71091 100.742 7.00423 100.974C7.29755 101.206 7.527 101.499 7.69259 101.854C7.8629 102.209 7.94806 102.63 7.94806 103.117Z" fill="#4E4E4E"/>
<path d="M13.6437 106.197V102.067C13.6437 101.461 13.5467 101.017 13.3527 100.733C13.1635 100.444 12.83 100.3 12.3521 100.3C12.144 100.3 11.9595 100.328 11.7986 100.385C11.6378 100.442 11.5006 100.536 11.387 100.669C11.2782 100.801 11.193 100.979 11.1315 101.201C11.0748 101.419 11.0464 101.693 11.0464 102.024V106.197H9.03808V96.6025L11.0464 95.6019V99.0721C11.1268 98.9869 11.2309 98.9042 11.3586 98.8237C11.4864 98.7386 11.6259 98.6652 11.7773 98.6037C11.9287 98.5375 12.0896 98.4878 12.2599 98.4547C12.4349 98.4216 12.6265 98.405 12.8347 98.405C13.322 98.405 13.7407 98.4878 14.0908 98.6534C14.4456 98.8143 14.7389 99.0461 14.9707 99.3489C15.2026 99.6469 15.3729 100.011 15.4817 100.442C15.5952 100.872 15.652 101.357 15.652 101.897V106.197H13.6437Z" fill="#4E4E4E"/>
<path d="M20.9999 106.197V105.686C20.91 105.781 20.8083 105.868 20.6948 105.949C20.5812 106.024 20.444 106.098 20.2832 106.169C20.1223 106.235 19.9591 106.282 19.7935 106.311C19.6279 106.344 19.4576 106.36 19.2826 106.36C18.9277 106.36 18.58 106.306 18.2394 106.197C17.8987 106.083 17.5936 105.915 17.3239 105.693C17.059 105.471 16.8437 105.189 16.6782 104.849C16.5173 104.508 16.4369 104.106 16.4369 103.642C16.4369 103.221 16.5173 102.852 16.6782 102.535C16.839 102.218 17.059 101.956 17.3381 101.747C17.6173 101.535 17.9437 101.376 18.3174 101.272C18.6959 101.163 19.1004 101.109 19.5309 101.109C19.8858 101.109 20.1791 101.14 20.4109 101.201C20.6427 101.263 20.8391 101.334 20.9999 101.414V101.038C20.9999 100.754 20.9053 100.522 20.7161 100.342C20.5268 100.158 20.2571 100.066 19.9071 100.066C19.4623 100.066 19.1004 100.099 18.8213 100.165C18.5422 100.226 18.2086 100.361 17.8207 100.569L17.0472 99.1786C17.5297 98.8947 17.9863 98.696 18.4168 98.5824C18.852 98.4642 19.3488 98.405 19.9071 98.405C20.3707 98.405 20.7917 98.4642 21.1702 98.5824C21.5534 98.7007 21.8799 98.8734 22.1495 99.1005C22.4239 99.3276 22.6345 99.6067 22.7811 99.9379C22.9325 100.269 23.0082 100.65 23.0082 101.08V106.197H20.9999ZM20.9999 102.996C20.9148 102.944 20.8272 102.899 20.7373 102.862C20.6475 102.819 20.5481 102.786 20.4393 102.762C20.3305 102.734 20.2075 102.713 20.0703 102.698C19.9378 102.684 19.7817 102.677 19.6019 102.677C19.2234 102.677 18.9348 102.762 18.7361 102.933C18.5422 103.098 18.4452 103.335 18.4452 103.642C18.4452 103.775 18.4641 103.902 18.5019 104.025C18.5445 104.148 18.6108 104.257 18.7007 104.352C18.7953 104.442 18.9159 104.515 19.0626 104.572C19.2092 104.629 19.389 104.657 19.6019 104.657C19.7675 104.657 19.9212 104.638 20.0632 104.6C20.2098 104.562 20.3423 104.513 20.4606 104.451C20.5836 104.385 20.69 104.309 20.7799 104.224C20.8698 104.139 20.9431 104.051 20.9999 103.962V102.996Z" fill="#4E4E4E"/>
<path d="M30.7476 102.478C30.7476 103.046 30.6814 103.569 30.5489 104.047C30.4165 104.52 30.2225 104.929 29.967 105.274C29.7163 105.615 29.4064 105.882 29.0374 106.076C28.6731 106.266 28.2544 106.36 27.7813 106.36C27.4454 106.36 27.1379 106.303 26.8588 106.19C26.5796 106.072 26.3502 105.93 26.1704 105.764V107.999L24.1621 109V98.5683H26.1704V99.0437C26.3928 98.8403 26.6388 98.6842 26.9084 98.5753C27.1781 98.4618 27.4691 98.405 27.7813 98.405C28.1882 98.405 28.5714 98.4831 28.9309 98.6392C29.2905 98.7953 29.6051 99.039 29.8748 99.3702C30.1444 99.7013 30.3573 100.125 30.5135 100.64C30.6696 101.151 30.7476 101.764 30.7476 102.478ZM28.7109 102.521C28.7109 101.797 28.5998 101.246 28.3774 100.868C28.1598 100.489 27.8357 100.3 27.4052 100.3C27.1355 100.3 26.9037 100.349 26.7097 100.449C26.5205 100.548 26.3407 100.711 26.1704 100.938V103.813C26.2556 103.926 26.3407 104.021 26.4259 104.096C26.5158 104.172 26.6175 104.238 26.731 104.295C26.8446 104.352 26.9676 104.394 27.1 104.423C27.2325 104.451 27.3721 104.465 27.5187 104.465C27.9067 104.465 28.2024 104.302 28.4058 103.976C28.6092 103.649 28.7109 103.164 28.7109 102.521Z" fill="#4E4E4E"/>
<path d="M37.8342 102.386C37.8342 102.533 37.8318 102.658 37.8271 102.762C37.8224 102.866 37.8153 102.956 37.8058 103.032H33.2428C33.2617 103.292 33.3185 103.515 33.4131 103.699C33.5124 103.879 33.6331 104.025 33.775 104.139C33.9217 104.253 34.0849 104.335 34.2647 104.387C34.4444 104.439 34.6266 104.465 34.8111 104.465C34.9483 104.465 35.076 104.456 35.1943 104.437C35.3126 104.413 35.4308 104.378 35.5491 104.331C35.6721 104.279 35.7786 104.219 35.8685 104.153C35.9631 104.087 36.0459 104.014 36.1168 103.933L37.5432 105.118C37.3918 105.317 37.2121 105.494 37.0039 105.651C36.7957 105.802 36.571 105.932 36.3297 106.041C36.0885 106.145 35.8377 106.223 35.5775 106.275C35.322 106.332 35.0666 106.36 34.8111 106.36C34.39 106.36 34.0115 106.308 33.6756 106.204C33.3445 106.105 33.0535 105.97 32.8028 105.8C32.552 105.629 32.3297 105.433 32.1357 105.211C31.9417 104.983 31.7785 104.733 31.6461 104.458C31.5136 104.179 31.4095 103.869 31.3338 103.529C31.2581 103.183 31.2203 102.802 31.2203 102.386C31.2203 101.804 31.3054 101.27 31.4757 100.782C31.6508 100.29 31.8897 99.8693 32.1925 99.5192C32.5 99.1691 32.8596 98.8971 33.2712 98.7031C33.6875 98.5044 34.1369 98.405 34.6195 98.405C35.1304 98.405 35.5846 98.5115 35.982 98.7244C36.3794 98.9325 36.7153 99.2188 36.9897 99.5831C37.2641 99.9426 37.4723 100.364 37.6142 100.846C37.7609 101.329 37.8342 101.842 37.8342 102.386ZM35.8827 101.52C35.8685 101.35 35.8306 101.182 35.7691 101.017C35.7123 100.851 35.6272 100.704 35.5136 100.577C35.4048 100.449 35.2676 100.347 35.102 100.271C34.9412 100.191 34.7472 100.151 34.5201 100.151C34.3356 100.151 34.17 100.186 34.0234 100.257C33.8814 100.328 33.7561 100.425 33.6473 100.548C33.5432 100.671 33.458 100.815 33.3918 100.981C33.3303 101.147 33.2901 101.326 33.2712 101.52H35.8827Z" fill="#4E4E4E"/>
<path d="M46.4507 105.892C46.2852 106.024 46.0628 106.135 45.7837 106.225C45.5045 106.315 45.2089 106.36 44.8966 106.36C44.5891 106.36 44.31 106.303 44.0592 106.19C43.8085 106.076 43.5932 105.918 43.4134 105.714C43.2384 105.506 43.1012 105.263 43.0018 104.983C42.9072 104.704 42.8599 104.397 42.8599 104.061V100.456H41.5825V98.5683H42.8599V96.6025L44.8682 95.6019V98.5683H46.6991V100.456H44.8682V103.522C44.8682 103.706 44.8848 103.858 44.9179 103.976C44.951 104.094 44.9983 104.189 45.0598 104.26C45.1213 104.326 45.197 104.373 45.2869 104.402C45.3815 104.425 45.488 104.437 45.6063 104.437C45.786 104.437 45.9611 104.392 46.1314 104.302C46.3064 104.212 46.5099 104.063 46.7417 103.855L46.4507 105.892Z" fill="#4E4E4E"/>
<path d="M52.5012 106.197V102.067C52.5012 101.461 52.4042 101.017 52.2102 100.733C52.021 100.444 51.6875 100.3 51.2096 100.3C51.0015 100.3 50.817 100.328 50.6561 100.385C50.4953 100.442 50.3581 100.536 50.2445 100.669C50.1357 100.801 50.0505 100.979 49.989 101.201C49.9323 101.419 49.9039 101.693 49.9039 102.024V106.197H47.8956V96.6025L49.9039 95.6019V99.0721C49.9843 98.9869 50.0884 98.9042 50.2161 98.8237C50.3439 98.7386 50.4834 98.6652 50.6348 98.6037C50.7862 98.5375 50.9471 98.4878 51.1174 98.4547C51.2924 98.4216 51.484 98.405 51.6922 98.405C52.1795 98.405 52.5982 98.4878 52.9483 98.6534C53.3031 98.8143 53.5964 99.0461 53.8282 99.3489C54.0601 99.6469 54.2304 100.011 54.3392 100.442C54.4527 100.872 54.5095 101.357 54.5095 101.897V106.197H52.5012Z" fill="#4E4E4E"/>
<path d="M61.8799 102.386C61.8799 102.533 61.8775 102.658 61.8728 102.762C61.8681 102.866 61.861 102.956 61.8515 103.032H57.2885C57.3074 103.292 57.3642 103.515 57.4588 103.699C57.5582 103.879 57.6788 104.025 57.8207 104.139C57.9674 104.253 58.1306 104.335 58.3104 104.387C58.4902 104.439 58.6723 104.465 58.8568 104.465C58.994 104.465 59.1217 104.456 59.24 104.437C59.3583 104.413 59.4766 104.378 59.5948 104.331C59.7178 104.279 59.8243 104.219 59.9142 104.153C60.0088 104.087 60.0916 104.014 60.1626 103.933L61.589 105.118C61.4376 105.317 61.2578 105.494 61.0496 105.651C60.8415 105.802 60.6167 105.932 60.3755 106.041C60.1342 106.145 59.8834 106.223 59.6232 106.275C59.3678 106.332 59.1123 106.36 58.8568 106.36C58.4358 106.36 58.0573 106.308 57.7214 106.204C57.3902 106.105 57.0992 105.97 56.8485 105.8C56.5978 105.629 56.3754 105.433 56.1814 105.211C55.9875 104.983 55.8242 104.733 55.6918 104.458C55.5593 104.179 55.4552 103.869 55.3795 103.529C55.3038 103.183 55.266 102.802 55.266 102.386C55.266 101.804 55.3511 101.27 55.5215 100.782C55.6965 100.29 55.9354 99.8693 56.2382 99.5192C56.5457 99.1691 56.9053 98.8971 57.3169 98.7031C57.7332 98.5044 58.1826 98.405 58.6652 98.405C59.1761 98.405 59.6303 98.5115 60.0277 98.7244C60.4251 98.9325 60.761 99.2188 61.0354 99.5831C61.3098 99.9426 61.518 100.364 61.6599 100.846C61.8066 101.329 61.8799 101.842 61.8799 102.386ZM59.9284 101.52C59.9142 101.35 59.8763 101.182 59.8148 101.017C59.7581 100.851 59.6729 100.704 59.5594 100.577C59.4505 100.449 59.3133 100.347 59.1478 100.271C58.9869 100.191 58.7929 100.151 58.5659 100.151C58.3813 100.151 58.2158 100.186 58.0691 100.257C57.9272 100.328 57.8018 100.425 57.693 100.548C57.5889 100.671 57.5037 100.815 57.4375 100.981C57.376 101.147 57.3358 101.326 57.3169 101.52H59.9284Z" fill="#4E4E4E"/>
<path d="M70.1771 97.4754C70.0778 97.4234 69.9737 97.3855 69.8649 97.3619C69.7561 97.3335 69.6283 97.3193 69.4817 97.3193C69.3255 97.3193 69.1978 97.3335 69.0985 97.3619C68.9991 97.3855 68.9234 97.4234 68.8714 97.4754C68.8241 97.5274 68.7886 97.5937 68.7649 97.6741C68.746 97.7545 68.7365 97.8397 68.7365 97.9296V98.5683H70.0352V100.456H68.7365V106.197H66.7353V100.456H65.8199V98.5683H66.7353V97.6528C66.7353 97.298 66.7826 96.9928 66.8773 96.7374C66.9766 96.4819 67.1185 96.2737 67.303 96.1129C67.4876 95.952 67.7146 95.8337 67.9843 95.7581C68.254 95.6824 68.5638 95.6445 68.9139 95.6445C69.1836 95.6445 69.4225 95.6658 69.6307 95.7084C69.8388 95.7462 70.021 95.7983 70.1771 95.8645V97.4754Z" fill="#4E4E4E"/>
<path d="M75.4257 106.197V105.686C75.2506 105.871 75.0094 106.029 74.7018 106.161C74.3943 106.294 74.0395 106.36 73.6374 106.36C72.7196 106.36 72.0194 106.065 71.5368 105.473C71.059 104.882 70.8201 104.014 70.8201 102.869V98.5683H72.8284V102.691C72.8284 103.306 72.9254 103.756 73.1193 104.04C73.3133 104.324 73.6468 104.465 74.1199 104.465C74.5977 104.465 74.9337 104.321 75.1276 104.033C75.3263 103.739 75.4257 103.309 75.4257 102.741V98.5683H77.434V106.197H75.4257Z" fill="#4E4E4E"/>
<path d="M82.9096 105.892C82.744 106.024 82.5217 106.135 82.2426 106.225C81.9634 106.315 81.6677 106.36 81.3555 106.36C81.048 106.36 80.7689 106.303 80.5181 106.19C80.2674 106.076 80.0521 105.918 79.8723 105.714C79.6973 105.506 79.5601 105.263 79.4607 104.983C79.3661 104.704 79.3188 104.397 79.3188 104.061V100.456H78.0414V98.5683H79.3188V96.6025L81.3271 95.6019V98.5683H83.158V100.456H81.3271V103.522C81.3271 103.706 81.3437 103.858 81.3768 103.976C81.4099 104.094 81.4572 104.189 81.5187 104.26C81.5802 104.326 81.6559 104.373 81.7458 104.402C81.8404 104.425 81.9469 104.437 82.0651 104.437C82.2449 104.437 82.42 104.392 82.5903 104.302C82.7653 104.212 82.9688 104.063 83.2006 103.855L82.9096 105.892Z" fill="#4E4E4E"/>
<path d="M88.7756 106.197V105.686C88.6005 105.871 88.3592 106.029 88.0517 106.161C87.7442 106.294 87.3894 106.36 86.9873 106.36C86.0694 106.36 85.3693 106.065 84.8867 105.473C84.4089 104.882 84.17 104.014 84.17 102.869V98.5683H86.1783V102.691C86.1783 103.306 86.2752 103.756 86.4692 104.04C86.6632 104.324 86.9967 104.465 87.4698 104.465C87.9476 104.465 88.2835 104.321 88.4775 104.033C88.6762 103.739 88.7756 103.309 88.7756 102.741V98.5683H90.7839V106.197H88.7756Z" fill="#4E4E4E"/>
<path d="M96.4653 100.91C96.3045 100.763 96.1271 100.645 95.9331 100.555C95.7391 100.461 95.5286 100.413 95.3015 100.413C94.8284 100.413 94.4949 100.551 94.3009 100.825C94.1069 101.095 94.0099 101.509 94.0099 102.067V106.197H92.0016V98.5683H94.0099V99.0721C94.0904 98.9869 94.185 98.9042 94.2938 98.8237C94.4073 98.7433 94.5304 98.67 94.6628 98.6037C94.8 98.5328 94.9467 98.4831 95.1028 98.4547C95.2589 98.4216 95.4174 98.405 95.5783 98.405C95.9047 98.405 96.1886 98.4618 96.4298 98.5753C96.6711 98.6842 96.858 98.8072 96.9905 98.9444L96.4653 100.91Z" fill="#4E4E4E"/>
<path d="M103.502 102.386C103.502 102.533 103.5 102.658 103.495 102.762C103.49 102.866 103.483 102.956 103.474 103.032H98.9108C98.9297 103.292 98.9865 103.515 99.0811 103.699C99.1804 103.879 99.3011 104.025 99.443 104.139C99.5897 104.253 99.7529 104.335 99.9327 104.387C100.112 104.439 100.295 104.465 100.479 104.465C100.616 104.465 100.744 104.456 100.862 104.437C100.981 104.413 101.099 104.378 101.217 104.331C101.34 104.279 101.447 104.219 101.536 104.153C101.631 104.087 101.714 104.014 101.785 103.933L103.211 105.118C103.06 105.317 102.88 105.494 102.672 105.651C102.464 105.802 102.239 105.932 101.998 106.041C101.756 106.145 101.506 106.223 101.246 106.275C100.99 106.332 100.735 106.36 100.479 106.36C100.058 106.36 99.6796 106.308 99.3437 106.204C99.0125 106.105 98.7215 105.97 98.4708 105.8C98.2201 105.629 97.9977 105.433 97.8037 105.211C97.6097 104.983 97.4465 104.733 97.3141 104.458C97.1816 104.179 97.0775 103.869 97.0018 103.529C96.9261 103.183 96.8883 102.802 96.8883 102.386C96.8883 101.804 96.9734 101.27 97.1437 100.782C97.3188 100.29 97.5577 99.8693 97.8605 99.5192C98.168 99.1691 98.5276 98.8971 98.9392 98.7031C99.3555 98.5044 99.8049 98.405 100.287 98.405C100.798 98.405 101.253 98.5115 101.65 98.7244C102.047 98.9325 102.383 99.2188 102.658 99.5831C102.932 99.9426 103.14 100.364 103.282 100.846C103.429 101.329 103.502 101.842 103.502 102.386ZM101.551 101.52C101.536 101.35 101.499 101.182 101.437 101.017C101.38 100.851 101.295 100.704 101.182 100.577C101.073 100.449 100.936 100.347 100.77 100.271C100.609 100.191 100.415 100.151 100.188 100.151C100.004 100.151 99.838 100.186 99.6914 100.257C99.5495 100.328 99.4241 100.425 99.3153 100.548C99.2112 100.671 99.126 100.815 99.0598 100.981C98.9983 101.147 98.9581 101.326 98.9392 101.52H101.551Z" fill="#4E4E4E"/>
<path d="M114.941 106.489H113.274L112.11 101.905L110.946 106.489H109.271L107.078 98.8605H109.115L110.144 103.232L111.308 98.8605H112.969L114.125 103.232L115.161 98.8605H117.134L114.941 106.489Z" fill="#4E4E4E"/>
<path d="M120.268 97.0864C120.268 97.2425 120.237 97.3916 120.175 97.5335C120.114 97.6707 120.031 97.7913 119.927 97.8954C119.823 97.9995 119.7 98.0823 119.558 98.1438C119.421 98.2053 119.274 98.2361 119.118 98.2361C118.962 98.2361 118.813 98.2053 118.671 98.1438C118.534 98.0823 118.413 97.9995 118.309 97.8954C118.205 97.7913 118.122 97.6707 118.061 97.5335C117.999 97.3916 117.968 97.2425 117.968 97.0864C117.968 96.9303 117.999 96.7836 118.061 96.6464C118.122 96.5045 118.205 96.3815 118.309 96.2774C118.413 96.1733 118.534 96.0906 118.671 96.029C118.813 95.9675 118.962 95.9368 119.118 95.9368C119.274 95.9368 119.421 95.9675 119.558 96.029C119.7 96.0906 119.823 96.1733 119.927 96.2774C120.031 96.3815 120.114 96.5045 120.175 96.6464C120.237 96.7836 120.268 96.9303 120.268 97.0864ZM118.11 106.489V98.8605H120.119V106.489H118.11Z" fill="#4E4E4E"/>
<path d="M125.963 106.184C125.797 106.317 125.575 106.428 125.296 106.518C125.017 106.608 124.721 106.652 124.409 106.652C124.101 106.652 123.822 106.596 123.572 106.482C123.321 106.369 123.106 106.21 122.926 106.007C122.751 105.799 122.613 105.555 122.514 105.276C122.42 104.997 122.372 104.689 122.372 104.353V100.748H121.095V98.8605H122.372V96.8948L124.381 95.8942V98.8605H126.211V100.748H124.381V103.814C124.381 103.998 124.397 104.15 124.43 104.268C124.463 104.386 124.511 104.481 124.572 104.552C124.634 104.618 124.709 104.665 124.799 104.694C124.894 104.718 125 104.729 125.119 104.729C125.298 104.729 125.473 104.684 125.644 104.594C125.819 104.505 126.022 104.356 126.254 104.147L125.963 106.184Z" fill="#4E4E4E"/>
<path d="M132.304 106.489V102.359C132.304 101.754 132.207 101.309 132.013 101.025C131.824 100.736 131.49 100.592 131.013 100.592C130.804 100.592 130.62 100.62 130.459 100.677C130.298 100.734 130.161 100.829 130.047 100.961C129.939 101.094 129.854 101.271 129.792 101.493C129.735 101.711 129.707 101.985 129.707 102.317V106.489H127.699V96.8948L129.707 95.8942V99.3644C129.787 99.2792 129.891 99.1964 130.019 99.116C130.147 99.0308 130.286 98.9575 130.438 98.896C130.589 98.8298 130.75 98.7801 130.92 98.747C131.095 98.7139 131.287 98.6973 131.495 98.6973C131.982 98.6973 132.401 98.7801 132.751 98.9457C133.106 99.1066 133.399 99.3384 133.631 99.6411C133.863 99.9392 134.033 100.303 134.142 100.734C134.256 101.165 134.312 101.649 134.312 102.189V106.489H132.304Z" fill="#4E4E4E"/>
<path d="M145.838 104.949C145.653 105.195 145.457 105.422 145.249 105.631C145.045 105.839 144.818 106.019 144.568 106.17C144.317 106.321 144.04 106.44 143.737 106.525C143.434 106.61 143.094 106.652 142.715 106.652C142.219 106.652 141.753 106.555 141.317 106.362C140.882 106.168 140.501 105.896 140.175 105.545C139.853 105.195 139.6 104.777 139.416 104.289C139.231 103.802 139.139 103.265 139.139 102.678C139.139 102.097 139.229 101.562 139.408 101.075C139.593 100.583 139.848 100.162 140.175 99.8115C140.501 99.4614 140.887 99.1893 141.332 98.9954C141.781 98.7967 142.271 98.6973 142.8 98.6973C143.444 98.6973 144.016 98.8393 144.518 99.1231C145.019 99.4022 145.455 99.8233 145.824 100.386L144.504 101.72C144.39 101.56 144.272 101.413 144.149 101.28C144.031 101.148 143.903 101.034 143.766 100.94C143.628 100.845 143.477 100.772 143.311 100.72C143.146 100.663 142.961 100.635 142.758 100.635C142.517 100.635 142.299 100.684 142.105 100.784C141.911 100.878 141.745 101.015 141.608 101.195C141.471 101.37 141.365 101.583 141.289 101.834C141.213 102.085 141.175 102.366 141.175 102.678C141.175 102.986 141.213 103.265 141.289 103.516C141.365 103.762 141.471 103.975 141.608 104.155C141.745 104.334 141.911 104.474 142.105 104.573C142.299 104.668 142.517 104.715 142.758 104.715C142.952 104.715 143.129 104.694 143.29 104.651C143.456 104.609 143.609 104.547 143.751 104.467C143.898 104.382 144.035 104.28 144.163 104.162C144.295 104.039 144.428 103.899 144.56 103.743L145.838 104.949Z" fill="#4E4E4E"/>
<path d="M153.229 102.678C153.229 103.265 153.142 103.802 152.967 104.289C152.796 104.777 152.555 105.195 152.243 105.545C151.935 105.896 151.569 106.168 151.143 106.362C150.722 106.555 150.263 106.652 149.766 106.652C149.269 106.652 148.81 106.555 148.389 106.362C147.968 106.168 147.604 105.896 147.297 105.545C146.994 105.195 146.755 104.777 146.58 104.289C146.41 103.802 146.324 103.265 146.324 102.678C146.324 102.097 146.41 101.562 146.58 101.075C146.755 100.583 146.994 100.162 147.297 99.8115C147.604 99.4614 147.968 99.1893 148.389 98.9954C148.81 98.7967 149.269 98.6973 149.766 98.6973C150.263 98.6973 150.722 98.7967 151.143 98.9954C151.569 99.1893 151.935 99.4614 152.243 99.8115C152.555 100.162 152.796 100.583 152.967 101.075C153.142 101.562 153.229 102.097 153.229 102.678ZM151.193 102.678C151.193 102.39 151.162 102.123 151.1 101.877C151.044 101.626 150.956 101.408 150.838 101.224C150.719 101.039 150.57 100.895 150.391 100.791C150.216 100.687 150.007 100.635 149.766 100.635C149.525 100.635 149.317 100.687 149.142 100.791C148.967 100.895 148.82 101.039 148.702 101.224C148.588 101.403 148.503 101.619 148.446 101.869C148.389 102.115 148.361 102.385 148.361 102.678C148.361 102.972 148.389 103.244 148.446 103.495C148.503 103.745 148.588 103.961 148.702 104.14C148.82 104.32 148.967 104.462 149.142 104.566C149.317 104.665 149.525 104.715 149.766 104.715C150.007 104.715 150.216 104.661 150.391 104.552C150.57 104.438 150.719 104.287 150.838 104.098C150.956 103.909 151.044 103.691 151.1 103.445C151.162 103.199 151.193 102.943 151.193 102.678Z" fill="#4E4E4E"/>
<path d="M158.96 106.489V102.359C158.96 101.758 158.863 101.314 158.669 101.025C158.48 100.736 158.146 100.592 157.669 100.592C157.46 100.592 157.276 100.62 157.115 100.677C156.954 100.734 156.817 100.829 156.703 100.961C156.595 101.094 156.509 101.271 156.448 101.493C156.391 101.711 156.363 101.985 156.363 102.317V106.489H154.354V98.8605H156.363V99.3644C156.448 99.2792 156.55 99.1964 156.668 99.116C156.791 99.0356 156.933 98.9623 157.094 98.896C157.255 98.8251 157.422 98.7754 157.598 98.747C157.777 98.7139 157.962 98.6973 158.151 98.6973C158.638 98.6973 159.057 98.7801 159.407 98.9457C159.762 99.1066 160.055 99.3384 160.287 99.6411C160.519 99.9392 160.689 100.303 160.798 100.734C160.912 101.165 160.968 101.649 160.968 102.189V106.489H158.96Z" fill="#4E4E4E"/>
<path d="M169.68 97.0864C169.68 97.2425 169.649 97.3916 169.588 97.5335C169.526 97.6707 169.443 97.7913 169.339 97.8954C169.235 97.9995 169.112 98.0823 168.97 98.1438C168.833 98.2053 168.686 98.2361 168.53 98.2361C168.374 98.2361 168.225 98.2053 168.083 98.1438C167.946 98.0823 167.825 97.9995 167.721 97.8954C167.617 97.7913 167.534 97.6707 167.473 97.5335C167.411 97.3916 167.38 97.2425 167.38 97.0864C167.38 96.9303 167.411 96.7836 167.473 96.6464C167.534 96.5045 167.617 96.3815 167.721 96.2774C167.825 96.1733 167.946 96.0906 168.083 96.029C168.225 95.9675 168.374 95.9368 168.53 95.9368C168.686 95.9368 168.833 95.9675 168.97 96.029C169.112 96.0906 169.235 96.1733 169.339 96.2774C169.443 96.3815 169.526 96.5045 169.588 96.6464C169.649 96.7836 169.68 96.9303 169.68 97.0864ZM166.117 97.7677C166.018 97.7156 165.914 97.6778 165.805 97.6541C165.696 97.6257 165.568 97.6116 165.422 97.6116C165.124 97.6116 164.925 97.6612 164.826 97.7606C164.726 97.8552 164.677 98.009 164.677 98.2219V98.8605H165.975V100.748H164.677V106.489H162.676V100.748H161.76V98.8605H162.676V97.9451C162.676 97.5903 162.723 97.2851 162.817 97.0296C162.917 96.7742 163.059 96.566 163.243 96.4052C163.428 96.2443 163.655 96.126 163.924 96.0503C164.194 95.9746 164.504 95.9368 164.854 95.9368C165.119 95.9368 165.356 95.9557 165.564 95.9936C165.772 96.0314 165.956 96.0858 166.117 96.1568V97.7677ZM167.53 106.489V98.8605H169.538V106.489H167.53Z" fill="#4E4E4E"/>
<path d="M175.311 106.489V106.007C175.212 106.097 175.11 106.177 175.006 106.248C174.902 106.314 174.784 106.383 174.651 106.454C174.519 106.52 174.374 106.57 174.218 106.603C174.062 106.636 173.89 106.652 173.7 106.652C173.293 106.652 172.91 106.574 172.551 106.418C172.191 106.257 171.877 106.011 171.607 105.68C171.337 105.349 171.124 104.928 170.968 104.417C170.812 103.901 170.734 103.289 170.734 102.579C170.734 102.011 170.8 101.491 170.933 101.018C171.065 100.54 171.257 100.131 171.508 99.7902C171.758 99.4448 172.068 99.1775 172.437 98.9883C172.806 98.7943 173.227 98.6973 173.7 98.6973C173.875 98.6973 174.039 98.7115 174.19 98.7399C174.341 98.7683 174.49 98.8156 174.637 98.8818C174.784 98.9433 174.909 99.0072 175.013 99.0734C175.122 99.1397 175.221 99.213 175.311 99.2934V96.8948L177.32 95.8942V106.489H175.311ZM175.311 101.245C175.236 101.141 175.155 101.051 175.07 100.975C174.985 100.9 174.885 100.833 174.772 100.777C174.663 100.715 174.538 100.67 174.396 100.642C174.259 100.609 174.114 100.592 173.963 100.592C173.575 100.592 173.279 100.755 173.076 101.082C172.872 101.408 172.771 101.893 172.771 102.537C172.771 102.929 172.801 103.265 172.863 103.544C172.924 103.823 173.012 104.053 173.125 104.233C173.239 104.412 173.376 104.545 173.537 104.63C173.698 104.715 173.878 104.758 174.076 104.758C174.233 104.758 174.37 104.744 174.488 104.715C174.611 104.682 174.72 104.637 174.814 104.58C174.914 104.524 175.004 104.457 175.084 104.382C175.165 104.301 175.24 104.214 175.311 104.119V101.245Z" fill="#4E4E4E"/>
<path d="M185.087 102.678C185.087 102.825 185.085 102.95 185.08 103.055C185.075 103.159 185.068 103.249 185.059 103.324H180.496C180.515 103.584 180.571 103.807 180.666 103.991C180.765 104.171 180.886 104.318 181.028 104.431C181.175 104.545 181.338 104.628 181.518 104.68C181.697 104.732 181.879 104.758 182.064 104.758C182.201 104.758 182.329 104.748 182.447 104.729C182.565 104.706 182.684 104.67 182.802 104.623C182.925 104.571 183.031 104.512 183.121 104.445C183.216 104.379 183.299 104.306 183.37 104.225L184.796 105.411C184.645 105.609 184.465 105.787 184.257 105.943C184.049 106.094 183.824 106.224 183.583 106.333C183.341 106.437 183.091 106.515 182.83 106.567C182.575 106.624 182.319 106.652 182.064 106.652C181.643 106.652 181.264 106.6 180.929 106.496C180.597 106.397 180.306 106.262 180.056 106.092C179.805 105.922 179.583 105.725 179.389 105.503C179.195 105.276 179.031 105.025 178.899 104.751C178.766 104.471 178.662 104.162 178.587 103.821C178.511 103.476 178.473 103.095 178.473 102.678C178.473 102.097 178.558 101.562 178.729 101.075C178.904 100.583 179.143 100.162 179.445 99.8115C179.753 99.4614 180.112 99.1893 180.524 98.9954C180.94 98.7967 181.39 98.6973 181.872 98.6973C182.383 98.6973 182.837 98.8038 183.235 99.0167C183.632 99.2248 183.968 99.5111 184.243 99.8753C184.517 100.235 184.725 100.656 184.867 101.139C185.014 101.621 185.087 102.134 185.087 102.678ZM183.135 101.813C183.121 101.642 183.083 101.474 183.022 101.309C182.965 101.143 182.88 100.997 182.766 100.869C182.658 100.741 182.52 100.639 182.355 100.564C182.194 100.483 182 100.443 181.773 100.443C181.588 100.443 181.423 100.479 181.276 100.55C181.134 100.62 181.009 100.717 180.9 100.84C180.796 100.963 180.711 101.108 180.645 101.273C180.583 101.439 180.543 101.619 180.524 101.813H183.135Z" fill="#4E4E4E"/>
<path d="M190.853 106.489V102.359C190.853 101.758 190.756 101.314 190.562 101.025C190.373 100.736 190.04 100.592 189.562 100.592C189.354 100.592 189.169 100.62 189.008 100.677C188.847 100.734 188.71 100.829 188.597 100.961C188.488 101.094 188.403 101.271 188.341 101.493C188.284 101.711 188.256 101.985 188.256 102.317V106.489H186.248V98.8605H188.256V99.3644C188.341 99.2792 188.443 99.1964 188.561 99.116C188.684 99.0356 188.826 98.9623 188.987 98.896C189.148 98.8251 189.316 98.7754 189.491 98.747C189.671 98.7139 189.855 98.6973 190.044 98.6973C190.532 98.6973 190.95 98.7801 191.3 98.9457C191.655 99.1066 191.949 99.3384 192.18 99.6411C192.412 99.9392 192.583 100.303 192.691 100.734C192.805 101.165 192.862 101.649 192.862 102.189V106.489H190.853Z" fill="#4E4E4E"/>
<path d="M200.608 104.949C200.423 105.195 200.227 105.422 200.019 105.631C199.815 105.839 199.588 106.019 199.338 106.17C199.087 106.321 198.81 106.44 198.507 106.525C198.205 106.61 197.864 106.652 197.485 106.652C196.989 106.652 196.523 106.555 196.087 106.362C195.652 106.168 195.271 105.896 194.945 105.545C194.623 105.195 194.37 104.777 194.186 104.289C194.001 103.802 193.909 103.265 193.909 102.678C193.909 102.097 193.999 101.562 194.178 101.075C194.363 100.583 194.618 100.162 194.945 99.8115C195.271 99.4614 195.657 99.1893 196.102 98.9954C196.551 98.7967 197.041 98.6973 197.571 98.6973C198.214 98.6973 198.786 98.8393 199.288 99.1231C199.789 99.4022 200.225 99.8233 200.594 100.386L199.274 101.72C199.16 101.56 199.042 101.413 198.919 101.28C198.801 101.148 198.673 101.034 198.536 100.94C198.398 100.845 198.247 100.772 198.082 100.72C197.916 100.663 197.731 100.635 197.528 100.635C197.287 100.635 197.069 100.684 196.875 100.784C196.681 100.878 196.516 101.015 196.378 101.195C196.241 101.37 196.135 101.583 196.059 101.834C195.983 102.085 195.946 102.366 195.946 102.678C195.946 102.986 195.983 103.265 196.059 103.516C196.135 103.762 196.241 103.975 196.378 104.155C196.516 104.334 196.681 104.474 196.875 104.573C197.069 104.668 197.287 104.715 197.528 104.715C197.722 104.715 197.899 104.694 198.06 104.651C198.226 104.609 198.38 104.547 198.522 104.467C198.668 104.382 198.805 104.28 198.933 104.162C199.066 104.039 199.198 103.899 199.331 103.743L200.608 104.949Z" fill="#4E4E4E"/>
<path d="M207.708 102.678C207.708 102.825 207.706 102.95 207.701 103.055C207.697 103.159 207.689 103.249 207.68 103.324H203.117C203.136 103.584 203.193 103.807 203.287 103.991C203.387 104.171 203.507 104.318 203.649 104.431C203.796 104.545 203.959 104.628 204.139 104.68C204.319 104.732 204.501 104.758 204.685 104.758C204.822 104.758 204.95 104.748 205.068 104.729C205.187 104.706 205.305 104.67 205.423 104.623C205.546 104.571 205.653 104.512 205.743 104.445C205.837 104.379 205.92 104.306 205.991 104.225L207.417 105.411C207.266 105.609 207.086 105.787 206.878 105.943C206.67 106.094 206.445 106.224 206.204 106.333C205.963 106.437 205.712 106.515 205.452 106.567C205.196 106.624 204.941 106.652 204.685 106.652C204.264 106.652 203.886 106.6 203.55 106.496C203.219 106.397 202.928 106.262 202.677 106.092C202.426 105.922 202.204 105.725 202.01 105.503C201.816 105.276 201.653 105.025 201.52 104.751C201.388 104.471 201.284 104.162 201.208 103.821C201.132 103.476 201.094 103.095 201.094 102.678C201.094 102.097 201.18 101.562 201.35 101.075C201.525 100.583 201.764 100.162 202.067 99.8115C202.374 99.4614 202.734 99.1893 203.145 98.9954C203.562 98.7967 204.011 98.6973 204.494 98.6973C205.005 98.6973 205.459 98.8038 205.856 99.0167C206.254 99.2248 206.589 99.5111 206.864 99.8753C207.138 100.235 207.346 100.656 207.488 101.139C207.635 101.621 207.708 102.134 207.708 102.678ZM205.757 101.813C205.743 101.642 205.705 101.474 205.643 101.309C205.587 101.143 205.501 100.997 205.388 100.869C205.279 100.741 205.142 100.639 204.976 100.564C204.815 100.483 204.621 100.443 204.394 100.443C204.21 100.443 204.044 100.479 203.898 100.55C203.756 100.62 203.63 100.717 203.521 100.84C203.417 100.963 203.332 101.108 203.266 101.273C203.204 101.439 203.164 101.619 203.145 101.813H205.757Z" fill="#4E4E4E"/>
<path d="M100.029 74.0975C100.029 75.2482 99.8427 76.2974 99.4704 77.245C99.0981 78.1926 98.5228 79.0105 97.7444 79.6987C96.966 80.3756 95.9789 80.9001 94.7831 81.2724C93.5873 81.6447 92.1602 81.8308 90.5019 81.8308C89.4866 81.8308 88.5107 81.7236 87.5744 81.5093C86.6381 81.3062 85.7638 81.0186 84.9515 80.6463C84.1393 80.2627 83.4003 79.8002 82.7348 79.2587C82.0804 78.7059 81.5277 78.0911 81.0764 77.4142L84.5792 74.3006C85.4253 75.2934 86.3786 76.0041 87.439 76.4328C88.4995 76.8615 89.6106 77.0758 90.7726 77.0758C91.5961 77.0758 92.2617 77.0194 92.7694 76.9066C93.2771 76.7825 93.7001 76.6189 94.0385 76.4158C94.3883 76.2015 94.6364 75.9533 94.7831 75.6713C94.9297 75.3892 95.0031 74.9775 95.0031 74.436C95.0031 74.0524 94.9354 73.714 94.8 73.4207C94.6646 73.1161 94.3995 72.8397 94.0047 72.5915C93.6211 72.3433 93.074 72.1064 92.3633 71.8808C91.6638 71.6552 90.7388 71.4126 89.5881 71.1531C88.4712 70.8937 87.4447 70.5947 86.5083 70.2563C85.5833 69.9179 84.7879 69.4779 84.1223 68.9364C83.4568 68.3949 82.9378 67.7237 82.5656 66.9227C82.1933 66.1105 82.0071 65.1064 82.0071 63.9106C82.0071 62.8163 82.2328 61.8292 82.684 60.9493C83.1353 60.0694 83.7501 59.3248 84.5285 58.7156C85.3182 58.0952 86.2376 57.6214 87.2867 57.2942C88.3472 56.967 89.4753 56.8034 90.6711 56.8034C91.5962 56.8034 92.4704 56.8881 93.294 57.0573C94.1288 57.2152 94.941 57.4803 95.7307 57.8526C96.5317 58.2249 97.2085 58.6197 97.7613 59.0371C98.3141 59.4545 98.8951 59.9791 99.5043 60.6109L96.0015 64.0122C95.5389 63.5384 95.1328 63.1717 94.7831 62.9122C94.4334 62.6528 94.0329 62.4159 93.5816 62.2015C93.1304 61.9759 92.6566 61.8067 92.1602 61.6939C91.6638 61.5698 91.1111 61.5077 90.5019 61.5077C89.8476 61.5077 89.3004 61.5754 88.8605 61.7108C88.4205 61.8349 88.0651 61.9985 87.7944 62.2015C87.5236 62.4046 87.3262 62.6358 87.2021 62.8953C87.0893 63.1548 87.0329 63.4199 87.0329 63.6907C87.0329 64.0742 87.1062 64.4014 87.2529 64.6721C87.3995 64.9429 87.659 65.1854 88.0313 65.3998C88.4036 65.6028 88.8999 65.8002 89.5204 65.992C90.1522 66.1725 90.9531 66.3756 91.9233 66.6012C93.2996 66.9284 94.4447 67.2724 95.3584 67.6334C96.2722 67.9832 97.0788 68.4344 97.7782 68.9872C98.4777 69.5399 99.0248 70.2394 99.4197 71.0855C99.8258 71.9316 100.029 72.9356 100.029 74.0975Z" fill="#4E4E4E"/>
<path d="M115.097 80.714C114.703 81.0299 114.172 81.295 113.507 81.5093C112.841 81.7236 112.136 81.8308 111.391 81.8308C110.658 81.8308 109.993 81.6955 109.395 81.4247C108.797 81.154 108.284 80.776 107.855 80.2909C107.437 79.7946 107.11 79.2136 106.873 78.548C106.648 77.8824 106.535 77.1491 106.535 76.3482V67.7519H103.489V63.2507H106.535V58.5633L111.324 56.1774V63.2507H115.69V67.7519H111.324V75.0621C111.324 75.5021 111.363 75.8631 111.442 76.1451C111.521 76.4271 111.634 76.6527 111.781 76.822C111.927 76.9799 112.108 77.0927 112.322 77.1604C112.548 77.2168 112.802 77.245 113.084 77.245C113.512 77.245 113.93 77.1378 114.336 76.9235C114.753 76.7092 115.238 76.3538 115.791 75.8574L115.097 80.714Z" fill="#4E4E4E"/>
<path d="M150.281 81.7299V80.5792C150.044 80.7936 149.802 80.9854 149.554 81.1546C149.305 81.3125 149.023 81.4761 148.707 81.6453C148.392 81.8033 148.048 81.9217 147.675 82.0007C147.303 82.0797 146.891 82.1191 146.44 82.1191C145.47 82.1191 144.556 81.933 143.699 81.5607C142.841 81.1772 142.091 80.5905 141.448 79.8009C140.805 79.0112 140.297 78.0071 139.925 76.7888C139.553 75.5591 139.367 73.0653 139.367 71.3731C139.367 70.0194 139.525 69.8113 139.84 68.6832C140.156 67.5438 140.613 66.568 141.211 65.7558C141.809 64.9322 142.548 64.2948 143.428 63.8436C144.308 63.3811 145.312 63.1498 146.44 63.1498C146.857 63.1498 147.247 63.1836 147.608 63.2513C147.969 63.319 148.324 63.4318 148.674 63.5897C149.023 63.7364 149.322 63.8887 149.57 64.0467C149.83 64.2046 150.067 64.3794 150.281 64.5712V58.8517L155.07 56.4657V81.7299H150.281ZM150.281 69.2247C150.101 68.9765 149.909 68.7622 149.706 68.5817C149.503 68.4012 149.266 68.2433 148.995 68.1079C148.736 67.9612 148.437 67.8541 148.098 67.7864C147.771 67.7074 147.427 67.6679 147.066 67.6679C146.141 67.6679 145.436 68.0571 144.951 68.8355C144.466 69.6139 144.223 70.7703 144.223 72.3045C144.223 73.2408 144.297 74.0418 144.443 74.7074C144.59 75.373 144.798 75.9201 145.069 76.3488C145.34 76.7775 145.667 77.0934 146.051 77.2964C146.434 77.4995 146.863 77.601 147.337 77.601C147.709 77.601 148.036 77.5672 148.318 77.4995C148.612 77.4205 148.871 77.3133 149.097 77.178C149.334 77.0426 149.548 76.8847 149.74 76.7042C149.931 76.5124 150.112 76.3037 150.281 76.0781V69.2247Z" fill="#4E4E4E"/>
<path d="M165.408 60.1628C165.555 59.8243 165.628 59.469 165.628 59.0967C165.628 58.7244 165.555 58.3747 165.408 58.0475C165.262 57.7091 165.064 57.4158 164.816 57.1676C164.568 56.9194 164.275 56.722 163.936 56.5754C163.609 56.4287 163.259 56.3554 162.887 56.3554C162.515 56.3554 162.159 56.4287 161.821 56.5754C161.494 56.722 161.206 56.9194 160.958 57.1676C160.71 57.4158 160.512 57.7091 160.366 58.0475C160.219 58.3747 160.146 58.7244 160.146 59.0967C160.146 59.469 160.219 59.8243 160.366 60.1628C160.512 60.4899 160.71 60.7776 160.958 61.0258C161.206 61.274 161.494 61.4714 161.821 61.618C162.159 61.7647 162.515 61.838 162.887 61.838C163.259 61.838 163.609 61.7647 163.936 61.618C164.275 61.4714 164.568 61.274 164.816 61.0258C165.064 60.7776 165.262 60.4899 165.408 60.1628Z" fill="#4E4E4E"/>
<path d="M160.501 63.3271V81.5181H165.29V63.3271H160.501Z" fill="#4E4E4E"/>
<path d="M186.603 72.3546C186.603 73.7535 186.394 75.0339 185.977 76.1959C185.571 77.3578 184.996 78.3562 184.251 79.191C183.518 80.0258 182.643 80.6745 181.628 81.137C180.624 81.5996 179.53 81.8308 178.345 81.8308C177.161 81.8308 176.067 81.5996 175.062 81.137C174.058 80.6745 173.19 80.0258 172.456 79.191C171.734 78.3562 171.165 77.3578 170.747 76.1959C170.341 75.0339 170.138 73.7535 170.138 72.3546C170.138 70.967 170.341 69.6922 170.747 68.5303C171.165 67.357 171.734 66.353 172.456 65.5182C173.19 64.6834 174.058 64.0347 175.062 63.5722C176.067 63.0984 177.161 62.8615 178.345 62.8615C179.53 62.8615 180.624 63.0984 181.628 63.5722C182.643 64.0347 183.518 64.6834 184.251 65.5182C184.996 66.353 185.571 67.357 185.977 68.5303C186.394 69.6922 186.603 70.967 186.603 72.3546ZM181.747 72.3546C181.747 71.6665 181.673 71.0291 181.527 70.4425C181.391 69.8445 181.183 69.3256 180.901 68.8857C180.618 68.4457 180.263 68.1016 179.834 67.8534C179.417 67.6052 178.921 67.4811 178.345 67.4811C177.77 67.4811 177.274 67.6052 176.856 67.8534C176.439 68.1016 176.089 68.4457 175.807 68.8857C175.536 69.3143 175.333 69.8276 175.198 70.4255C175.062 71.0122 174.995 71.6552 174.995 72.3546C174.995 73.054 175.062 73.7027 175.198 74.3006C175.333 74.8985 175.536 75.4118 175.807 75.8405C176.089 76.2692 176.439 76.6076 176.856 76.8558C177.274 77.0927 177.77 77.2112 178.345 77.2112C178.921 77.2112 179.417 77.0815 179.834 76.822C180.263 76.5512 180.618 76.1902 180.901 75.739C181.183 75.2877 181.391 74.7688 181.527 74.1822C181.673 73.5956 181.747 72.9864 181.747 72.3546Z" fill="#4E4E4E"/>
<path d="M130.24 81.6027V80.3843C129.822 80.8243 129.247 81.2022 128.514 81.5181C127.78 81.834 126.934 81.9919 125.975 81.9919C123.787 81.9919 122.117 81.2868 120.966 79.8767C119.827 78.4665 119.257 76.3964 119.257 73.6664V63.4118H124.046V73.2433C124.046 74.7099 124.277 75.7816 124.74 76.4585C125.203 77.1353 125.998 77.4738 127.126 77.4738C128.265 77.4738 129.066 77.1297 129.529 76.4416C130.003 75.7421 130.24 74.7155 130.24 73.3618V63.4118H135.028V81.6027H130.24Z" fill="#4E4E4E"/>
<path d="M200.88 71.0751H207.708V74.7997H200.88V81.6279H197.156V74.7997H190.327V71.0751H197.156V64.247H200.88V71.0751Z" fill="url(#paint0_linear_25_3982)"/>
<defs>
<linearGradient id="paint0_linear_25_3982" x1="196.224" y1="75.7308" x2="207.708" y2="64.247" gradientUnits="userSpaceOnUse">
<stop stop-color="#FFE600"/>
<stop offset="0.305908" stop-color="#FC35FF"/>
<stop offset="0.575393" stop-color="#68C8FF"/>
</linearGradient>
</defs>
</svg>
